<?xml version="1.0" encoding="utf-8"?>
<!-- Generator: Adobe Illustrator 17.1.0, SVG Export Plug-In . SVG Version: 6.00 Build 0)  -->
<!DOCTYPE svg PUBLIC "-//W3C//DTD SVG 1.1//EN" "http://www.w3.org/Graphics/SVG/1.1/DTD/svg11.dtd">
<svg version="1.1" id="Capa_1" xmlns="http://www.w3.org/2000/svg" xmlns:xlink="http://www.w3.org/1999/xlink" x="0px" y="0px"
	 viewBox="0 0 1000 560" enable-background="new 0 0 1000 560" xml:space="preserve">
<rect id="FONDO" x="-1020" y="-1.5" fill="#00CCFF" width="1000" height="563"/>
<g id="COLORES">
	<rect x="-987.2" y="326.9" fill="#EF505D" width="187.8" height="47"/>
	<rect x="-799.3" y="326.9" fill="#5B5CA8" width="187.8" height="47"/>
	<rect x="-611.5" y="326.9" fill="#5AC09C" width="187.8" height="47"/>
	<rect x="-423.6" y="326.9" fill="#6B6B6E" width="187.8" height="47"/>
	<rect x="-235.8" y="326.9" fill="#FFFFFF" width="187.8" height="47"/>
</g>
<text transform="matrix(1 0 0 1 -987.1575 314.2041)" fill="#FFFFFF" font-family="'Oswald-Bold'" font-size="145.3825">#CLASIFICADOS</text>
<rect x="-82.8" y="1213.5" fill-rule="evenodd" clip-rule="evenodd" fill="#FFFFFF" stroke="#000000" stroke-miterlimit="22.9256" width="1.5" height="263.2"/>
<polygon fill-rule="evenodd" clip-rule="evenodd" fill="#FFFFFF" stroke="#000000" stroke-miterlimit="22.9256" points="
	-949.7,1360.3 -950.7,1361.4 -1077,1237.6 -1076,1236.5 "/>
<polygon fill="none" stroke="#FFFFFF" stroke-width="0.5669" stroke-miterlimit="22.9256" points="-608.8,1440.5 -609.8,1441.6 
	-736.2,1317.8 -735.1,1316.7 "/>
<polygon fill-rule="evenodd" clip-rule="evenodd" fill="#FFFFFF" points="-234.7,1323.8 -235.8,1322.7 -115.6,1192.6 -114.5,1193.7 
	"/>
<polygon fill="none" stroke="#000000" stroke-width="0.5669" stroke-miterlimit="22.9256" points="-356,1196.4 -357.1,1195.3 
	-236.9,1065.2 -235.8,1066.3 "/>
<polygon fill-rule="evenodd" clip-rule="evenodd" fill="#FFFFFF" points="-689.1,1194.8 -689.1,1196.4 -822.7,1194.2 -822.7,1192.6 
	"/>
<polygon fill="#FFFFFF" stroke="#000000" stroke-width="0.5669" stroke-miterlimit="22.9256" points="-439,1226.7 -439,1228.3 
	-572.6,1226.1 -572.6,1224.5 "/>
<polygon fill-rule="evenodd" clip-rule="evenodd" fill="#FFFFFF" points="-251.6,1294.2 -251.5,1295.8 -384.9,1303.7 -385,1302.1 
	"/>
<polygon fill="none" stroke="#FFFFFF" stroke-width="0.5669" stroke-miterlimit="22.9256" points="-406.9,1109.7 -406.8,1111.3 
	-540.1,1119.1 -540.3,1117.5 "/>
<g>
	<defs>
		<filter id="Adobe_OpacityMaskFilter" filterUnits="userSpaceOnUse" x="-1225.6" y="872.4" width="148.6" height="147.5">
			<feColorMatrix  type="matrix" values="1 0 0 0 0  0 1 0 0 0  0 0 1 0 0  0 0 0 1 0"/>
		</filter>
	</defs>
	<mask maskUnits="userSpaceOnUse" x="-1225.6" y="872.4" width="148.6" height="147.5" id="SVGID_1_">
		<g filter="url(#Adobe_OpacityMaskFilter)">
			<g>
				<defs>
					<rect id="SVGID_2_" x="-1429" y="557.6" width="534.6" height="515.1"/>
				</defs>
				<clipPath id="SVGID_3_">
					<use xlink:href="#SVGID_2_"  overflow="visible"/>
				</clipPath>
				<polygon clip-path="url(#SVGID_3_)" fill="#FFFFFF" points="-1575.4,764.8 -1627.1,656.2 -996.7,342.4 -945,451.1 				"/>
				<polygon clip-path="url(#SVGID_3_)" points="-1378.3,1179.2 -1326.6,1287.8 -696.1,974.1 -747.8,865.4 				"/>
				<g>
					<defs>
						<polygon id="SVGID_4_" points="-1600.1,713 -1353.6,1231 -723.2,917.2 -969.6,399.3 						"/>
					</defs>
					<clipPath id="SVGID_5_" clip-path="url(#SVGID_3_)">
						<use xlink:href="#SVGID_4_"  overflow="visible"/>
					</clipPath>
					<g transform="matrix(1 0 -2.980232e-08 1 -6.103516e-05 0)" clip-path="url(#SVGID_5_)">
						
							<image overflow="visible" width="256" height="1" xlink:href="C2A7D7D8DB81E56B.jpg"  transform="matrix(0.9626 2.0232 -630.4648 313.7348 -969.6133 399.3072)">
						</image>
					</g>
				</g>
			</g>
		</g>
	</mask>
	<polygon mask="url(#SVGID_1_)" fill-rule="evenodd" clip-rule="evenodd" fill="#FFFFFF" points="-1215.3,960.2 -1077,1019.9 
		-1139.6,881.6 -1225.6,872.4 	"/>
</g>
<g>
	<defs>
		<filter id="Adobe_OpacityMaskFilter_1_" filterUnits="userSpaceOnUse" x="-963.8" y="1005.1" width="141" height="155.3">
			<feColorMatrix  type="matrix" values="1 0 0 0 0  0 1 0 0 0  0 0 1 0 0  0 0 0 1 0"/>
		</filter>
	</defs>
	<mask maskUnits="userSpaceOnUse" x="-963.8" y="1005.1" width="141" height="155.3" id="SVGID_6_">
		<g filter="url(#Adobe_OpacityMaskFilter_1_)">
			<g>
				<defs>
					<polygon id="SVGID_7_" points="-1027.2,790.2 -1006.2,1352.6 -491.3,1332.5 -512.4,770.1 					"/>
				</defs>
				<clipPath id="SVGID_8_">
					<use xlink:href="#SVGID_7_"  overflow="visible"/>
				</clipPath>
				<polygon clip-path="url(#SVGID_8_)" fill="#FFFFFF" points="-725.3,624.1 -618.7,565.4 -280.4,1216.4 -386.9,1275 				"/>
				<polygon clip-path="url(#SVGID_8_)" points="-1131.6,847.7 -1238.2,906.3 -899.8,1557.2 -793.3,1498.6 				"/>
				<g>
					<defs>
						<polygon id="SVGID_9_" points="-674.5,596.1 -1182.4,875.6 -844.1,1526.5 -336.1,1247.1 						"/>
					</defs>
					<clipPath id="SVGID_10_" clip-path="url(#SVGID_8_)">
						<use xlink:href="#SVGID_9_"  overflow="visible"/>
					</clipPath>
					<g transform="matrix(1 0 0 1 3.051758e-05 0)" clip-path="url(#SVGID_10_)">
						
							<image overflow="visible" width="256" height="1" xlink:href="C2A7D7D8DB81E56C.jpg"  transform="matrix(-1.9841 1.0918 -338.3771 -650.9266 -336.1315 1247.056)">
						</image>
					</g>
				</g>
			</g>
		</g>
	</mask>
	<polygon mask="url(#SVGID_6_)" fill-rule="evenodd" clip-rule="evenodd" fill="#FFFFFF" points="-908.4,1017.7 -963.8,1160.4 
		-829.6,1093.3 -822.7,1005.1 	"/>
</g>
<g>
	<defs>
		<filter id="Adobe_OpacityMaskFilter_2_" filterUnits="userSpaceOnUse" x="-1059.5" y="647.3" width="144.7" height="283.8">
			<feColorMatrix  type="matrix" values="1 0 0 0 0  0 1 0 0 0  0 0 1 0 0  0 0 0 1 0"/>
		</filter>
	</defs>
	<mask maskUnits="userSpaceOnUse" x="-1059.5" y="647.3" width="144.7" height="283.8" id="SVGID_11_">
		<g filter="url(#Adobe_OpacityMaskFilter_2_)">
			<g>
				<defs>
					<rect id="SVGID_12_" x="-1346.8" y="455.4" width="534.6" height="520.1"/>
				</defs>
				<clipPath id="SVGID_13_">
					<use xlink:href="#SVGID_12_"  overflow="visible"/>
				</clipPath>
				<polygon clip-path="url(#SVGID_13_)" fill="#FFFFFF" points="-1493.3,664.6 -1545,554.9 -914.6,238.1 -862.8,347.9 				"/>
				<polygon clip-path="url(#SVGID_13_)" points="-1296.2,1083 -1244.5,1192.7 -614,876 -665.7,766.2 				"/>
				<g>
					<defs>
						<polygon id="SVGID_14_" points="-1518,612.3 -1271.5,1135.3 -641.1,818.5 -887.5,295.6 						"/>
					</defs>
					<clipPath id="SVGID_15_" clip-path="url(#SVGID_13_)">
						<use xlink:href="#SVGID_14_"  overflow="visible"/>
					</clipPath>
					<g transform="matrix(1 -2.980232e-08 0 1 6.103516e-05 0)" clip-path="url(#SVGID_15_)">
						
							<image overflow="visible" width="256" height="1" xlink:href="C2A7D7D8DB81E56D.jpg"  transform="matrix(0.9626 2.0429 -630.4648 316.7927 -887.4928 295.5526)">
						</image>
					</g>
				</g>
			</g>
		</g>
	</mask>
	
		<polygon mask="url(#SVGID_11_)" fill-rule="evenodd" clip-rule="evenodd" fill="#FFFFFF" stroke="#000000" stroke-miterlimit="22.9256" points="
		-985.6,929.7 -915.4,740 -987.2,648.1 -1058.9,740 	"/>
</g>
<g>
	<defs>
		<filter id="Adobe_OpacityMaskFilter_3_" filterUnits="userSpaceOnUse" x="-679" y="1047.7" width="6.5" height="35.1">
			<feColorMatrix  type="matrix" values="1 0 0 0 0  0 1 0 0 0  0 0 1 0 0  0 0 0 1 0"/>
		</filter>
	</defs>
	<mask maskUnits="userSpaceOnUse" x="-679" y="1047.7" width="6.5" height="35.1" id="SVGID_16_">
		<g filter="url(#Adobe_OpacityMaskFilter_3_)">
			<g>
				<defs>
					<rect id="SVGID_17_" x="-1033.7" y="608.4" width="534.6" height="520.1"/>
				</defs>
				<clipPath id="SVGID_18_">
					<use xlink:href="#SVGID_17_"  overflow="visible"/>
				</clipPath>
				<polygon clip-path="url(#SVGID_18_)" fill="#FFFFFF" points="-1180.1,817.7 -1231.8,708 -601.4,391.2 -549.7,500.9 				"/>
				<polygon clip-path="url(#SVGID_18_)" points="-983,1236.1 -931.3,1345.8 -300.8,1029 -352.5,919.3 				"/>
				<g>
					<defs>
						<polygon id="SVGID_19_" points="-1204.8,765.4 -958.4,1288.4 -327.9,971.6 -574.3,448.6 						"/>
					</defs>
					<clipPath id="SVGID_20_" clip-path="url(#SVGID_18_)">
						<use xlink:href="#SVGID_19_"  overflow="visible"/>
					</clipPath>
					<g transform="matrix(1 -2.980232e-08 0 1 0 -3.051758e-05)" clip-path="url(#SVGID_20_)">
						
							<image overflow="visible" width="256" height="1" xlink:href="C2A7D7D8DB81E56E.jpg"  transform="matrix(0.9626 2.0429 -630.4648 316.7927 -574.3195 448.6125)">
						</image>
					</g>
				</g>
			</g>
		</g>
	</mask>
	<polygon mask="url(#SVGID_16_)" fill-rule="evenodd" clip-rule="evenodd" points="-672.5,1082.8 -672.5,1047.8 -679,1047.7 
		-678.9,1082.8 	"/>
</g>
<g>
	<path fill="#CCCC66" d="M734,707.8c0-5.5,4.1-12.3,8.9-15l199.3-115.2c4.8-2.8,12.6-2.8,17.4,0l199,115.2c4.8,2.8,8.4,9.5,8.4,15
		v230.4c0,5.5-3.6,12.3-8.4,15l-199.1,115.2c-4.8,2.8-12.5,2.8-17.3,0L742.9,953.2c-4.8-2.8-8.9-9.5-8.9-15V707.8z"/>
	<path fill="none" stroke="#000000" stroke-miterlimit="10" d="M734.5,707.8c0-5.5,3.9-12.3,8.7-15l199.2-115.2
		c4.8-2.8,12.6-2.8,17.3,0l199.2,115.2c4.8,2.8,8.7,9.5,8.7,15v230.4c0,5.5-3.9,12.3-8.7,15l-199.2,115.2c-4.8,2.8-12.6,2.8-17.3,0
		L743.2,953.2c-4.8-2.8-8.7-9.5-8.7-15V707.8z"/>
</g>
<polygon fill="#FFFFFF" points="-82,824.7 111.5,712.8 305,824.7 305,1048.5 111.5,1160.4 -82,1048.5 "/>
<polygon display="none" fill="#EF505D" stroke="#008F45" stroke-width="0.5669" stroke-miterlimit="22.9256" points="844.8,431.4 
	825,456.8 845.2,509.2 864.6,456.8 "/>
<polygon fill="#EF505D" stroke="#000000" stroke-width="0.5669" stroke-miterlimit="22.9256" points="1042.1,444.6 1044.9,468.8 
	1083,485.3 1065.8,447.1 "/>
<polygon display="none" fill="#EF505D" stroke="#009ADA" stroke-width="0.5669" stroke-miterlimit="22.9256" points="885.9,465.5 
	862.4,469 847.1,508.3 884,489.8 "/>
<polygon fill="#EF505D" stroke="#211915" stroke-width="0.5669" stroke-miterlimit="22.9256" points="1115.9,464.5 1129.4,476.3 
	1158.6,465.6 1130.2,453.6 "/>
<polygon display="none" fill="#EF505D" stroke="#211915" stroke-width="0.5669" stroke-miterlimit="22.9256" points="889.8,506.6 
	876.7,519.1 847.1,509.7 875,496.3 "/>
<rect x="844.6" y="510.9" display="none" fill-rule="evenodd" clip-rule="evenodd" fill="#EF505D" width="1.5" height="9.5"/>
<polygon fill-rule="evenodd" clip-rule="evenodd" points="-611.5,661.1 -682.6,752.1 -609.9,939.9 -540.5,752.1 "/>
<g>
	
		<image overflow="visible" opacity="0.75" width="95" height="57" xlink:href="C2A7D7D8DB81E577.png"  transform="matrix(1 0 0 1 259.3812 425.037)">
	</image>
	<g>
		<path fill="#FCEE21" d="M330.4,456.4v9.3c0,0.1,0,0.2-0.1,0.3c-0.1,0.1-0.2,0.1-0.3,0.2c-0.1,0-0.4,0.1-0.6,0.1
			c-0.3,0-0.6,0.1-0.9,0.1c-0.4,0-0.7,0-1-0.1c-0.2,0-0.5-0.1-0.6-0.1c-0.2,0-0.3-0.1-0.3-0.2c-0.1-0.1-0.1-0.2-0.1-0.3v-9.3
			l-8.4-14.3c-0.2-0.3-0.3-0.5-0.3-0.7c0-0.2,0-0.3,0.1-0.4c0.1-0.1,0.3-0.2,0.6-0.2c0.3,0,0.7,0,1.2,0c0.5,0,0.8,0,1.1,0
			c0.3,0,0.5,0.1,0.7,0.1c0.2,0,0.3,0.1,0.4,0.2c0.1,0.1,0.2,0.2,0.2,0.3l4.1,7.3c0.4,0.7,0.8,1.4,1.1,2.2c0.4,0.8,0.8,1.5,1.2,2.3
			h0c0.3-0.7,0.7-1.5,1.1-2.2c0.4-0.7,0.7-1.5,1.1-2.2l4.1-7.3c0-0.1,0.1-0.2,0.2-0.3c0.1-0.1,0.2-0.2,0.3-0.2
			c0.1,0,0.3-0.1,0.6-0.1c0.3,0,0.6,0,1,0c0.5,0,1,0,1.3,0.1c0.3,0,0.5,0.1,0.7,0.2c0.1,0.1,0.2,0.2,0.1,0.4c0,0.2-0.1,0.4-0.3,0.7
			L330.4,456.4z M320.5,464.8c0,0.3,0,0.5,0,0.7c0,0.2-0.1,0.3-0.1,0.5c-0.1,0.1-0.2,0.2-0.2,0.3c-0.1,0.1-0.2,0.1-0.4,0.1h-13.1
			c-0.4,0-0.7-0.1-1-0.3c-0.3-0.2-0.5-0.6-0.5-1.1v-23.4c0-0.1,0-0.2,0.1-0.3c0.1-0.1,0.2-0.1,0.3-0.2c0.1,0,0.4-0.1,0.6-0.1
			c0.3,0,0.6-0.1,0.9-0.1c0.4,0,0.7,0,0.9,0.1c0.3,0,0.5,0.1,0.6,0.1c0.2,0,0.3,0.1,0.3,0.2c0.1,0.1,0.1,0.2,0.1,0.3v21.9h10.6
			c0.1,0,0.3,0,0.4,0.1c0.1,0.1,0.2,0.1,0.2,0.3c0.1,0.1,0.1,0.3,0.1,0.4C320.4,464.3,320.5,464.5,320.5,464.8z M287.5,444.3
			L287.5,444.3l-5.1,12.6h10.3L287.5,444.3z M300.2,465c0.1,0.3,0.2,0.5,0.2,0.7c0,0.2-0.1,0.3-0.2,0.4c-0.1,0.1-0.3,0.2-0.6,0.2
			c-0.3,0-0.7,0-1.1,0c-0.5,0-0.8,0-1.1,0c-0.3,0-0.5-0.1-0.6-0.1c-0.1,0-0.2-0.1-0.3-0.2c-0.1-0.1-0.1-0.2-0.2-0.3l-2.5-6.2h-12.3
			l-2.4,6.1c0,0.1-0.1,0.2-0.2,0.3c-0.1,0.1-0.2,0.2-0.3,0.2c-0.1,0.1-0.4,0.1-0.6,0.1c-0.3,0-0.6,0-1,0c-0.4,0-0.8,0-1.1-0.1
			c-0.3,0-0.5-0.1-0.6-0.2c-0.1-0.1-0.2-0.2-0.2-0.4c0-0.2,0.1-0.4,0.2-0.7l9.9-23.5c0.1-0.1,0.1-0.3,0.2-0.4
			c0.1-0.1,0.2-0.2,0.4-0.2c0.2-0.1,0.4-0.1,0.7-0.1c0.3,0,0.7,0,1.1,0c0.5,0,0.9,0,1.2,0c0.3,0,0.6,0.1,0.8,0.1
			c0.2,0.1,0.4,0.1,0.5,0.2c0.1,0.1,0.2,0.2,0.2,0.4L300.2,465z"/>
	</g>
</g>
<text transform="matrix(0.6577 0 0 1 1033.9902 269.9822)" fill="#EF505D" font-family="'Oswald-Bold'" font-size="28.6398">/clasificados</text>
<text transform="matrix(0.6577 0 0 1 1045.9902 227.9226)" fill="#EF505D" font-family="'Oswald-Bold'" font-size="28.6398">/clasificados</text>
<g>
	<g>
		
			<image overflow="visible" opacity="0.75" width="275" height="55" xlink:href="C2A7D7D8DB81E58C.png"  transform="matrix(1 0 0 1 271 -94)">
		</image>
		<g>
			<text transform="matrix(1.509 0 0 1 286.034 -61.0322)" font-family="'Overlock-Bold'" font-size="26.3482">CLASIFICADOS</text>
		</g>
	</g>
	<g>
		<g>
			
				<image overflow="visible" opacity="0.75" width="213" height="213" xlink:href="C2A7D7D8DB81E591.png"  transform="matrix(1 0 0 1 305.4325 -353.2612)">
			</image>
			<g>
				<g>
					<polygon fill-rule="evenodd" clip-rule="evenodd" fill="#FCEE21" points="410.5,-338.1 370,-286.2 411.5,-179 451,-286.2 					
						"/>
					<polygon fill-rule="evenodd" clip-rule="evenodd" fill="#FCEE21" points="324.2,-265.2 330,-215.7 407.8,-182 372.6,-260 					
						"/>
					<polygon fill-rule="evenodd" clip-rule="evenodd" fill="#FCEE21" points="494.7,-268.3 446.5,-261.2 415.3,-180.9 
						490.8,-218.7 					"/>
					<polygon fill-rule="evenodd" clip-rule="evenodd" fill="#FCEE21" points="320.7,-180.6 348.5,-156.4 408.2,-178.3 350,-203 
											"/>
					<polygon fill-rule="evenodd" clip-rule="evenodd" fill="#FCEE21" points="502.5,-184.4 475.8,-158.9 415.3,-177.9 
						472.3,-205.3 					"/>
					<rect x="410.2" y="-175.5" fill="#FCEE21" width="3" height="19.4"/>
					<path fill-rule="evenodd" clip-rule="evenodd" fill="#FCEE21" d="M450.3-198.2"/>
					<path fill-rule="evenodd" clip-rule="evenodd" fill="#FCEE21" d="M427.3-212.5"/>
				</g>
			</g>
		</g>
		<g>
			
				<image overflow="visible" opacity="0.75" width="275" height="313" xlink:href="C2A7D7D8DB81E592.png"  transform="matrix(1 0 0 1 278 -385)">
			</image>
			<g>
				<path fill="#FCEE21" d="M408.4-377l-122.2,70.7V-165l122.2,70.7L530.6-165v-141.3L408.4-377z M517.6-172.7l-109.2,63.2
					l-109.2-63.2V-299l109.2-63.2L517.6-299V-172.7z"/>
			</g>
		</g>
	</g>
</g>
<g>
	<text transform="matrix(1 0 0 1 1030.2506 326.391)" fill="#000E23" font-family="'Oswald-Bold'" font-size="23.3195">CLASIFICADOS</text>
	<g opacity="0.51">
		<linearGradient id="SVGID_21_" gradientUnits="userSpaceOnUse" x1="1098.9885" y1="326.8125" x2="1098.9885" y2="305.4805">
			<stop  offset="0" style="stop-color:#0E0E0E"/>
			<stop  offset="0.5" style="stop-color:#000000"/>
			<stop  offset="0.5213" style="stop-color:#010101"/>
			<stop  offset="0.7262" style="stop-color:#0B0B0B"/>
			<stop  offset="1" style="stop-color:#0E0E0E"/>
		</linearGradient>
		<path fill="url(#SVGID_21_)" d="M1031.2,319.5v-6.8c0-4.1,1.4-7.3,5.9-7.3c4.2,0,5.7,2.9,5.7,6.8v1.8h-4.1v-1.9
			c0-1.5-0.1-3.5-1.7-3.5c-1.6,0-1.8,1.8-1.8,3v8.8c0,1.3,0.2,3,1.8,3c1.5,0,1.7-1.9,1.7-3.5V318h4.1l0,1.7
			c-0.1,3.7-1.3,7.1-5.7,7.1C1032.6,326.8,1031.2,323.5,1031.2,319.5z"/>
		<linearGradient id="SVGID_22_" gradientUnits="userSpaceOnUse" x1="1098.9885" y1="326.8125" x2="1098.9885" y2="305.4805">
			<stop  offset="0" style="stop-color:#0E0E0E"/>
			<stop  offset="0.5" style="stop-color:#000000"/>
			<stop  offset="0.5213" style="stop-color:#010101"/>
			<stop  offset="0.7262" style="stop-color:#0B0B0B"/>
			<stop  offset="1" style="stop-color:#0E0E0E"/>
		</linearGradient>
		<path fill="url(#SVGID_22_)" d="M1044.8,326.4v-20.5h4.1v17.6h4.1v2.8H1044.8z"/>
		<linearGradient id="SVGID_23_" gradientUnits="userSpaceOnUse" x1="1098.9885" y1="326.8125" x2="1098.9885" y2="305.4805">
			<stop  offset="0" style="stop-color:#0E0E0E"/>
			<stop  offset="0.5" style="stop-color:#000000"/>
			<stop  offset="0.5213" style="stop-color:#010101"/>
			<stop  offset="0.7262" style="stop-color:#0B0B0B"/>
			<stop  offset="1" style="stop-color:#0E0E0E"/>
		</linearGradient>
		<path fill="url(#SVGID_23_)" d="M1053.5,326.4l4.4-20.5h3.7l4.4,20.5h-4.1l-0.8-4.4h-2.7l-0.8,4.4H1053.5z M1058.7,319.5h2.1
			l-1-7.6L1058.7,319.5z"/>
		<linearGradient id="SVGID_24_" gradientUnits="userSpaceOnUse" x1="1098.9885" y1="326.8125" x2="1098.9885" y2="305.4805">
			<stop  offset="0" style="stop-color:#0E0E0E"/>
			<stop  offset="0.5" style="stop-color:#000000"/>
			<stop  offset="0.5213" style="stop-color:#010101"/>
			<stop  offset="0.7262" style="stop-color:#0B0B0B"/>
			<stop  offset="1" style="stop-color:#0E0E0E"/>
		</linearGradient>
		<path fill="url(#SVGID_24_)" d="M1066.9,320.5l4.2-0.8c0,1.8,0.1,3.9,1.6,3.9c1,0,1.2-0.7,1.2-1.6c0-1.7-1.2-3.2-2.4-4.3l-1.3-1.1
			c-1.6-1.4-3.3-2.9-3.3-5.8c0-3.4,2.3-5.4,5.8-5.4c2.9,0,5.2,2.4,5.2,5.3c0,0.1,0,0.2,0,0.5l-4.3,0.6c0-0.3,0-0.5,0-0.8
			c0-1-0.2-2.4-1.3-2.4c-1,0-1.4,0.9-1.4,1.8c0,1.5,0.8,2.4,1.8,3.2c0.5,0.4,1,0.9,1.5,1.3c2.1,1.9,3.7,3.8,3.7,7
			c0,2.9-2.4,4.9-5.3,4.9C1068.7,326.8,1067.1,323.7,1066.9,320.5z"/>
		<linearGradient id="SVGID_25_" gradientUnits="userSpaceOnUse" x1="1098.9885" y1="326.8125" x2="1098.9885" y2="305.4805">
			<stop  offset="0" style="stop-color:#0E0E0E"/>
			<stop  offset="0.5" style="stop-color:#000000"/>
			<stop  offset="0.5213" style="stop-color:#010101"/>
			<stop  offset="0.7262" style="stop-color:#0B0B0B"/>
			<stop  offset="1" style="stop-color:#0E0E0E"/>
		</linearGradient>
		<path fill="url(#SVGID_25_)" d="M1079.7,326.4v-20.5h4.1v20.5H1079.7z"/>
		<linearGradient id="SVGID_26_" gradientUnits="userSpaceOnUse" x1="1098.9885" y1="326.8125" x2="1098.9885" y2="305.4805">
			<stop  offset="0" style="stop-color:#0E0E0E"/>
			<stop  offset="0.5" style="stop-color:#000000"/>
			<stop  offset="0.5213" style="stop-color:#010101"/>
			<stop  offset="0.7262" style="stop-color:#0B0B0B"/>
			<stop  offset="1" style="stop-color:#0E0E0E"/>
		</linearGradient>
		<path fill="url(#SVGID_26_)" d="M1086.3,326.4v-20.5h8.5v2.8h-4.4v5.6h3.1v2.9h-3.1v9.2H1086.3z"/>
		<linearGradient id="SVGID_27_" gradientUnits="userSpaceOnUse" x1="1098.9885" y1="326.8125" x2="1098.9885" y2="305.4805">
			<stop  offset="0" style="stop-color:#0E0E0E"/>
			<stop  offset="0.5" style="stop-color:#000000"/>
			<stop  offset="0.5213" style="stop-color:#010101"/>
			<stop  offset="0.7262" style="stop-color:#0B0B0B"/>
			<stop  offset="1" style="stop-color:#0E0E0E"/>
		</linearGradient>
		<path fill="url(#SVGID_27_)" d="M1096.3,326.4v-20.5h4.1v20.5H1096.3z"/>
		<linearGradient id="SVGID_28_" gradientUnits="userSpaceOnUse" x1="1098.9885" y1="326.8125" x2="1098.9885" y2="305.4805">
			<stop  offset="0" style="stop-color:#0E0E0E"/>
			<stop  offset="0.5" style="stop-color:#000000"/>
			<stop  offset="0.5213" style="stop-color:#010101"/>
			<stop  offset="0.7262" style="stop-color:#0B0B0B"/>
			<stop  offset="1" style="stop-color:#0E0E0E"/>
		</linearGradient>
		<path fill="url(#SVGID_28_)" d="M1102.6,319.5v-6.8c0-4.1,1.4-7.3,5.9-7.3c4.2,0,5.7,2.9,5.7,6.8v1.8h-4.1v-1.9
			c0-1.5-0.1-3.5-1.7-3.5c-1.6,0-1.8,1.8-1.8,3v8.8c0,1.3,0.2,3,1.8,3c1.5,0,1.7-1.9,1.7-3.5V318h4.1l0,1.7
			c-0.1,3.7-1.3,7.1-5.7,7.1C1104,326.8,1102.6,323.5,1102.6,319.5z"/>
		<linearGradient id="SVGID_29_" gradientUnits="userSpaceOnUse" x1="1098.9885" y1="326.8125" x2="1098.9885" y2="305.4805">
			<stop  offset="0" style="stop-color:#0E0E0E"/>
			<stop  offset="0.5" style="stop-color:#000000"/>
			<stop  offset="0.5213" style="stop-color:#010101"/>
			<stop  offset="0.7262" style="stop-color:#0B0B0B"/>
			<stop  offset="1" style="stop-color:#0E0E0E"/>
		</linearGradient>
		<path fill="url(#SVGID_29_)" d="M1115.2,326.4l4.4-20.5h3.7l4.4,20.5h-4.1l-0.8-4.4h-2.7l-0.8,4.4H1115.2z M1120.4,319.5h2.1
			l-1-7.6L1120.4,319.5z"/>
		<linearGradient id="SVGID_30_" gradientUnits="userSpaceOnUse" x1="1098.9885" y1="326.8125" x2="1098.9885" y2="305.4805">
			<stop  offset="0" style="stop-color:#0E0E0E"/>
			<stop  offset="0.5" style="stop-color:#000000"/>
			<stop  offset="0.5213" style="stop-color:#010101"/>
			<stop  offset="0.7262" style="stop-color:#0B0B0B"/>
			<stop  offset="1" style="stop-color:#0E0E0E"/>
		</linearGradient>
		<path fill="url(#SVGID_30_)" d="M1129.1,326.4v-20.5h4.3c5.5,0,6.8,2,6.8,6.6v6.7c0,4.8-0.9,7.1-6.8,7.1H1129.1z M1133.3,323.5
			L1133.3,323.5c2.2,0,2.8-0.1,2.8-2v-11c0-1.4-0.9-1.7-2.6-1.7h-0.2V323.5z"/>
		<linearGradient id="SVGID_31_" gradientUnits="userSpaceOnUse" x1="1098.9885" y1="326.8125" x2="1098.9885" y2="305.4805">
			<stop  offset="0" style="stop-color:#0E0E0E"/>
			<stop  offset="0.5" style="stop-color:#000000"/>
			<stop  offset="0.5213" style="stop-color:#010101"/>
			<stop  offset="0.7262" style="stop-color:#0B0B0B"/>
			<stop  offset="1" style="stop-color:#0E0E0E"/>
		</linearGradient>
		<path fill="url(#SVGID_31_)" d="M1142.1,319.7v-6.9c0-4.1,1.4-7.3,6-7.3c4.6,0,6,3.2,6,7.3v6.8c0,4-1.5,7.2-6,7.2
			C1143.6,326.8,1142.1,323.6,1142.1,319.7z M1150,320.6v-8.9c0-1.3-0.3-3-1.9-3c-1.6,0-1.8,1.7-1.8,3v8.9c0,1.3,0.3,3,1.8,3
			C1149.7,323.6,1150,321.9,1150,320.6z"/>
		<linearGradient id="SVGID_32_" gradientUnits="userSpaceOnUse" x1="1098.9885" y1="326.8125" x2="1098.9885" y2="305.4805">
			<stop  offset="0" style="stop-color:#0E0E0E"/>
			<stop  offset="0.5" style="stop-color:#000000"/>
			<stop  offset="0.5213" style="stop-color:#010101"/>
			<stop  offset="0.7262" style="stop-color:#0B0B0B"/>
			<stop  offset="1" style="stop-color:#0E0E0E"/>
		</linearGradient>
		<path fill="url(#SVGID_32_)" d="M1155.7,320.5l4.2-0.8c0,1.8,0.1,3.9,1.6,3.9c1,0,1.2-0.7,1.2-1.6c0-1.7-1.2-3.2-2.4-4.3l-1.3-1.1
			c-1.6-1.4-3.3-2.9-3.3-5.8c0-3.4,2.3-5.4,5.8-5.4c2.9,0,5.2,2.4,5.2,5.3c0,0.1,0,0.2,0,0.5l-4.3,0.6c0-0.3,0-0.5,0-0.8
			c0-1-0.2-2.4-1.3-2.4c-1,0-1.4,0.9-1.4,1.8c0,1.5,0.8,2.4,1.8,3.2c0.5,0.4,1,0.9,1.5,1.3c2.1,1.9,3.7,3.8,3.7,7
			c0,2.9-2.4,4.9-5.3,4.9C1157.6,326.8,1155.9,323.7,1155.7,320.5z"/>
	</g>
	<g opacity="0.7">
		<linearGradient id="SVGID_33_" gradientUnits="userSpaceOnUse" x1="1098.9885" y1="305.4805" x2="1098.9885" y2="326.8125">
			<stop  offset="0" style="stop-color:#FFFFFF;stop-opacity:0.77"/>
			<stop  offset="0.2033" style="stop-color:#FFFFFF;stop-opacity:0.65"/>
			<stop  offset="0.3448" style="stop-color:#FFFFFF;stop-opacity:0.65"/>
			<stop  offset="0.3462" style="stop-color:#FFFFFF;stop-opacity:0.65"/>
			<stop  offset="0.511" style="stop-color:#FFFFFF;stop-opacity:0"/>
			<stop  offset="0.5247" style="stop-color:#E1E1E1;stop-opacity:4.472275e-03"/>
			<stop  offset="0.5464" style="stop-color:#B8B8B8;stop-opacity:1.158136e-02"/>
			<stop  offset="0.5708" style="stop-color:#929292;stop-opacity:1.957367e-02"/>
			<stop  offset="0.5974" style="stop-color:#727272;stop-opacity:2.826838e-02"/>
			<stop  offset="0.6268" style="stop-color:#565656;stop-opacity:3.787606e-02"/>
			<stop  offset="0.6599" style="stop-color:#404040;stop-opacity:4.872554e-02"/>
			<stop  offset="0.6986" style="stop-color:#2F2F2F;stop-opacity:6.138782e-02"/>
			<stop  offset="0.7465" style="stop-color:#242424;stop-opacity:7.705475e-02"/>
			<stop  offset="0.8136" style="stop-color:#1D1D1D;stop-opacity:9.902187e-02"/>
			<stop  offset="1" style="stop-color:#1B1B1B;stop-opacity:0.16"/>
		</linearGradient>
		<path fill="url(#SVGID_33_)" d="M1031.2,319.5v-6.8c0-4.1,1.4-7.3,5.9-7.3c4.2,0,5.7,2.9,5.7,6.8v1.8h-4.1v-1.9
			c0-1.5-0.1-3.5-1.7-3.5c-1.6,0-1.8,1.8-1.8,3v8.8c0,1.3,0.2,3,1.8,3c1.5,0,1.7-1.9,1.7-3.5V318h4.1l0,1.7
			c-0.1,3.7-1.3,7.1-5.7,7.1C1032.6,326.8,1031.2,323.5,1031.2,319.5z"/>
		<linearGradient id="SVGID_34_" gradientUnits="userSpaceOnUse" x1="1098.9885" y1="305.4805" x2="1098.9885" y2="326.8125">
			<stop  offset="0" style="stop-color:#FFFFFF;stop-opacity:0.77"/>
			<stop  offset="0.2033" style="stop-color:#FFFFFF;stop-opacity:0.65"/>
			<stop  offset="0.3448" style="stop-color:#FFFFFF;stop-opacity:0.65"/>
			<stop  offset="0.3462" style="stop-color:#FFFFFF;stop-opacity:0.65"/>
			<stop  offset="0.511" style="stop-color:#FFFFFF;stop-opacity:0"/>
			<stop  offset="0.5247" style="stop-color:#E1E1E1;stop-opacity:4.472275e-03"/>
			<stop  offset="0.5464" style="stop-color:#B8B8B8;stop-opacity:1.158136e-02"/>
			<stop  offset="0.5708" style="stop-color:#929292;stop-opacity:1.957367e-02"/>
			<stop  offset="0.5974" style="stop-color:#727272;stop-opacity:2.826838e-02"/>
			<stop  offset="0.6268" style="stop-color:#565656;stop-opacity:3.787606e-02"/>
			<stop  offset="0.6599" style="stop-color:#404040;stop-opacity:4.872554e-02"/>
			<stop  offset="0.6986" style="stop-color:#2F2F2F;stop-opacity:6.138782e-02"/>
			<stop  offset="0.7465" style="stop-color:#242424;stop-opacity:7.705475e-02"/>
			<stop  offset="0.8136" style="stop-color:#1D1D1D;stop-opacity:9.902187e-02"/>
			<stop  offset="1" style="stop-color:#1B1B1B;stop-opacity:0.16"/>
		</linearGradient>
		<path fill="url(#SVGID_34_)" d="M1044.8,326.4v-20.5h4.1v17.6h4.1v2.8H1044.8z"/>
		<linearGradient id="SVGID_35_" gradientUnits="userSpaceOnUse" x1="1098.9885" y1="305.4805" x2="1098.9885" y2="326.8125">
			<stop  offset="0" style="stop-color:#FFFFFF;stop-opacity:0.77"/>
			<stop  offset="0.2033" style="stop-color:#FFFFFF;stop-opacity:0.65"/>
			<stop  offset="0.3448" style="stop-color:#FFFFFF;stop-opacity:0.65"/>
			<stop  offset="0.3462" style="stop-color:#FFFFFF;stop-opacity:0.65"/>
			<stop  offset="0.511" style="stop-color:#FFFFFF;stop-opacity:0"/>
			<stop  offset="0.5247" style="stop-color:#E1E1E1;stop-opacity:4.472275e-03"/>
			<stop  offset="0.5464" style="stop-color:#B8B8B8;stop-opacity:1.158136e-02"/>
			<stop  offset="0.5708" style="stop-color:#929292;stop-opacity:1.957367e-02"/>
			<stop  offset="0.5974" style="stop-color:#727272;stop-opacity:2.826838e-02"/>
			<stop  offset="0.6268" style="stop-color:#565656;stop-opacity:3.787606e-02"/>
			<stop  offset="0.6599" style="stop-color:#404040;stop-opacity:4.872554e-02"/>
			<stop  offset="0.6986" style="stop-color:#2F2F2F;stop-opacity:6.138782e-02"/>
			<stop  offset="0.7465" style="stop-color:#242424;stop-opacity:7.705475e-02"/>
			<stop  offset="0.8136" style="stop-color:#1D1D1D;stop-opacity:9.902187e-02"/>
			<stop  offset="1" style="stop-color:#1B1B1B;stop-opacity:0.16"/>
		</linearGradient>
		<path fill="url(#SVGID_35_)" d="M1053.5,326.4l4.4-20.5h3.7l4.4,20.5h-4.1l-0.8-4.4h-2.7l-0.8,4.4H1053.5z M1058.7,319.5h2.1
			l-1-7.6L1058.7,319.5z"/>
		<linearGradient id="SVGID_36_" gradientUnits="userSpaceOnUse" x1="1098.9885" y1="305.4805" x2="1098.9885" y2="326.8125">
			<stop  offset="0" style="stop-color:#FFFFFF;stop-opacity:0.77"/>
			<stop  offset="0.2033" style="stop-color:#FFFFFF;stop-opacity:0.65"/>
			<stop  offset="0.3448" style="stop-color:#FFFFFF;stop-opacity:0.65"/>
			<stop  offset="0.3462" style="stop-color:#FFFFFF;stop-opacity:0.65"/>
			<stop  offset="0.511" style="stop-color:#FFFFFF;stop-opacity:0"/>
			<stop  offset="0.5247" style="stop-color:#E1E1E1;stop-opacity:4.472275e-03"/>
			<stop  offset="0.5464" style="stop-color:#B8B8B8;stop-opacity:1.158136e-02"/>
			<stop  offset="0.5708" style="stop-color:#929292;stop-opacity:1.957367e-02"/>
			<stop  offset="0.5974" style="stop-color:#727272;stop-opacity:2.826838e-02"/>
			<stop  offset="0.6268" style="stop-color:#565656;stop-opacity:3.787606e-02"/>
			<stop  offset="0.6599" style="stop-color:#404040;stop-opacity:4.872554e-02"/>
			<stop  offset="0.6986" style="stop-color:#2F2F2F;stop-opacity:6.138782e-02"/>
			<stop  offset="0.7465" style="stop-color:#242424;stop-opacity:7.705475e-02"/>
			<stop  offset="0.8136" style="stop-color:#1D1D1D;stop-opacity:9.902187e-02"/>
			<stop  offset="1" style="stop-color:#1B1B1B;stop-opacity:0.16"/>
		</linearGradient>
		<path fill="url(#SVGID_36_)" d="M1066.9,320.5l4.2-0.8c0,1.8,0.1,3.9,1.6,3.9c1,0,1.2-0.7,1.2-1.6c0-1.7-1.2-3.2-2.4-4.3l-1.3-1.1
			c-1.6-1.4-3.3-2.9-3.3-5.8c0-3.4,2.3-5.4,5.8-5.4c2.9,0,5.2,2.4,5.2,5.3c0,0.1,0,0.2,0,0.5l-4.3,0.6c0-0.3,0-0.5,0-0.8
			c0-1-0.2-2.4-1.3-2.4c-1,0-1.4,0.9-1.4,1.8c0,1.5,0.8,2.4,1.8,3.2c0.5,0.4,1,0.9,1.5,1.3c2.1,1.9,3.7,3.8,3.7,7
			c0,2.9-2.4,4.9-5.3,4.9C1068.7,326.8,1067.1,323.7,1066.9,320.5z"/>
		<linearGradient id="SVGID_37_" gradientUnits="userSpaceOnUse" x1="1098.9885" y1="305.4805" x2="1098.9885" y2="326.8125">
			<stop  offset="0" style="stop-color:#FFFFFF;stop-opacity:0.77"/>
			<stop  offset="0.2033" style="stop-color:#FFFFFF;stop-opacity:0.65"/>
			<stop  offset="0.3448" style="stop-color:#FFFFFF;stop-opacity:0.65"/>
			<stop  offset="0.3462" style="stop-color:#FFFFFF;stop-opacity:0.65"/>
			<stop  offset="0.511" style="stop-color:#FFFFFF;stop-opacity:0"/>
			<stop  offset="0.5247" style="stop-color:#E1E1E1;stop-opacity:4.472275e-03"/>
			<stop  offset="0.5464" style="stop-color:#B8B8B8;stop-opacity:1.158136e-02"/>
			<stop  offset="0.5708" style="stop-color:#929292;stop-opacity:1.957367e-02"/>
			<stop  offset="0.5974" style="stop-color:#727272;stop-opacity:2.826838e-02"/>
			<stop  offset="0.6268" style="stop-color:#565656;stop-opacity:3.787606e-02"/>
			<stop  offset="0.6599" style="stop-color:#404040;stop-opacity:4.872554e-02"/>
			<stop  offset="0.6986" style="stop-color:#2F2F2F;stop-opacity:6.138782e-02"/>
			<stop  offset="0.7465" style="stop-color:#242424;stop-opacity:7.705475e-02"/>
			<stop  offset="0.8136" style="stop-color:#1D1D1D;stop-opacity:9.902187e-02"/>
			<stop  offset="1" style="stop-color:#1B1B1B;stop-opacity:0.16"/>
		</linearGradient>
		<path fill="url(#SVGID_37_)" d="M1079.7,326.4v-20.5h4.1v20.5H1079.7z"/>
		<linearGradient id="SVGID_38_" gradientUnits="userSpaceOnUse" x1="1098.9885" y1="305.4805" x2="1098.9885" y2="326.8125">
			<stop  offset="0" style="stop-color:#FFFFFF;stop-opacity:0.77"/>
			<stop  offset="0.2033" style="stop-color:#FFFFFF;stop-opacity:0.65"/>
			<stop  offset="0.3448" style="stop-color:#FFFFFF;stop-opacity:0.65"/>
			<stop  offset="0.3462" style="stop-color:#FFFFFF;stop-opacity:0.65"/>
			<stop  offset="0.511" style="stop-color:#FFFFFF;stop-opacity:0"/>
			<stop  offset="0.5247" style="stop-color:#E1E1E1;stop-opacity:4.472275e-03"/>
			<stop  offset="0.5464" style="stop-color:#B8B8B8;stop-opacity:1.158136e-02"/>
			<stop  offset="0.5708" style="stop-color:#929292;stop-opacity:1.957367e-02"/>
			<stop  offset="0.5974" style="stop-color:#727272;stop-opacity:2.826838e-02"/>
			<stop  offset="0.6268" style="stop-color:#565656;stop-opacity:3.787606e-02"/>
			<stop  offset="0.6599" style="stop-color:#404040;stop-opacity:4.872554e-02"/>
			<stop  offset="0.6986" style="stop-color:#2F2F2F;stop-opacity:6.138782e-02"/>
			<stop  offset="0.7465" style="stop-color:#242424;stop-opacity:7.705475e-02"/>
			<stop  offset="0.8136" style="stop-color:#1D1D1D;stop-opacity:9.902187e-02"/>
			<stop  offset="1" style="stop-color:#1B1B1B;stop-opacity:0.16"/>
		</linearGradient>
		<path fill="url(#SVGID_38_)" d="M1086.3,326.4v-20.5h8.5v2.8h-4.4v5.6h3.1v2.9h-3.1v9.2H1086.3z"/>
		<linearGradient id="SVGID_39_" gradientUnits="userSpaceOnUse" x1="1098.9885" y1="305.4805" x2="1098.9885" y2="326.8125">
			<stop  offset="0" style="stop-color:#FFFFFF;stop-opacity:0.77"/>
			<stop  offset="0.2033" style="stop-color:#FFFFFF;stop-opacity:0.65"/>
			<stop  offset="0.3448" style="stop-color:#FFFFFF;stop-opacity:0.65"/>
			<stop  offset="0.3462" style="stop-color:#FFFFFF;stop-opacity:0.65"/>
			<stop  offset="0.511" style="stop-color:#FFFFFF;stop-opacity:0"/>
			<stop  offset="0.5247" style="stop-color:#E1E1E1;stop-opacity:4.472275e-03"/>
			<stop  offset="0.5464" style="stop-color:#B8B8B8;stop-opacity:1.158136e-02"/>
			<stop  offset="0.5708" style="stop-color:#929292;stop-opacity:1.957367e-02"/>
			<stop  offset="0.5974" style="stop-color:#727272;stop-opacity:2.826838e-02"/>
			<stop  offset="0.6268" style="stop-color:#565656;stop-opacity:3.787606e-02"/>
			<stop  offset="0.6599" style="stop-color:#404040;stop-opacity:4.872554e-02"/>
			<stop  offset="0.6986" style="stop-color:#2F2F2F;stop-opacity:6.138782e-02"/>
			<stop  offset="0.7465" style="stop-color:#242424;stop-opacity:7.705475e-02"/>
			<stop  offset="0.8136" style="stop-color:#1D1D1D;stop-opacity:9.902187e-02"/>
			<stop  offset="1" style="stop-color:#1B1B1B;stop-opacity:0.16"/>
		</linearGradient>
		<path fill="url(#SVGID_39_)" d="M1096.3,326.4v-20.5h4.1v20.5H1096.3z"/>
		<linearGradient id="SVGID_40_" gradientUnits="userSpaceOnUse" x1="1098.9885" y1="305.4805" x2="1098.9885" y2="326.8125">
			<stop  offset="0" style="stop-color:#FFFFFF;stop-opacity:0.77"/>
			<stop  offset="0.2033" style="stop-color:#FFFFFF;stop-opacity:0.65"/>
			<stop  offset="0.3448" style="stop-color:#FFFFFF;stop-opacity:0.65"/>
			<stop  offset="0.3462" style="stop-color:#FFFFFF;stop-opacity:0.65"/>
			<stop  offset="0.511" style="stop-color:#FFFFFF;stop-opacity:0"/>
			<stop  offset="0.5247" style="stop-color:#E1E1E1;stop-opacity:4.472275e-03"/>
			<stop  offset="0.5464" style="stop-color:#B8B8B8;stop-opacity:1.158136e-02"/>
			<stop  offset="0.5708" style="stop-color:#929292;stop-opacity:1.957367e-02"/>
			<stop  offset="0.5974" style="stop-color:#727272;stop-opacity:2.826838e-02"/>
			<stop  offset="0.6268" style="stop-color:#565656;stop-opacity:3.787606e-02"/>
			<stop  offset="0.6599" style="stop-color:#404040;stop-opacity:4.872554e-02"/>
			<stop  offset="0.6986" style="stop-color:#2F2F2F;stop-opacity:6.138782e-02"/>
			<stop  offset="0.7465" style="stop-color:#242424;stop-opacity:7.705475e-02"/>
			<stop  offset="0.8136" style="stop-color:#1D1D1D;stop-opacity:9.902187e-02"/>
			<stop  offset="1" style="stop-color:#1B1B1B;stop-opacity:0.16"/>
		</linearGradient>
		<path fill="url(#SVGID_40_)" d="M1102.6,319.5v-6.8c0-4.1,1.4-7.3,5.9-7.3c4.2,0,5.7,2.9,5.7,6.8v1.8h-4.1v-1.9
			c0-1.5-0.1-3.5-1.7-3.5c-1.6,0-1.8,1.8-1.8,3v8.8c0,1.3,0.2,3,1.8,3c1.5,0,1.7-1.9,1.7-3.5V318h4.1l0,1.7
			c-0.1,3.7-1.3,7.1-5.7,7.1C1104,326.8,1102.6,323.5,1102.6,319.5z"/>
		<linearGradient id="SVGID_41_" gradientUnits="userSpaceOnUse" x1="1098.9885" y1="305.4805" x2="1098.9885" y2="326.8125">
			<stop  offset="0" style="stop-color:#FFFFFF;stop-opacity:0.77"/>
			<stop  offset="0.2033" style="stop-color:#FFFFFF;stop-opacity:0.65"/>
			<stop  offset="0.3448" style="stop-color:#FFFFFF;stop-opacity:0.65"/>
			<stop  offset="0.3462" style="stop-color:#FFFFFF;stop-opacity:0.65"/>
			<stop  offset="0.511" style="stop-color:#FFFFFF;stop-opacity:0"/>
			<stop  offset="0.5247" style="stop-color:#E1E1E1;stop-opacity:4.472275e-03"/>
			<stop  offset="0.5464" style="stop-color:#B8B8B8;stop-opacity:1.158136e-02"/>
			<stop  offset="0.5708" style="stop-color:#929292;stop-opacity:1.957367e-02"/>
			<stop  offset="0.5974" style="stop-color:#727272;stop-opacity:2.826838e-02"/>
			<stop  offset="0.6268" style="stop-color:#565656;stop-opacity:3.787606e-02"/>
			<stop  offset="0.6599" style="stop-color:#404040;stop-opacity:4.872554e-02"/>
			<stop  offset="0.6986" style="stop-color:#2F2F2F;stop-opacity:6.138782e-02"/>
			<stop  offset="0.7465" style="stop-color:#242424;stop-opacity:7.705475e-02"/>
			<stop  offset="0.8136" style="stop-color:#1D1D1D;stop-opacity:9.902187e-02"/>
			<stop  offset="1" style="stop-color:#1B1B1B;stop-opacity:0.16"/>
		</linearGradient>
		<path fill="url(#SVGID_41_)" d="M1115.2,326.4l4.4-20.5h3.7l4.4,20.5h-4.1l-0.8-4.4h-2.7l-0.8,4.4H1115.2z M1120.4,319.5h2.1
			l-1-7.6L1120.4,319.5z"/>
		<linearGradient id="SVGID_42_" gradientUnits="userSpaceOnUse" x1="1098.9885" y1="305.4805" x2="1098.9885" y2="326.8125">
			<stop  offset="0" style="stop-color:#FFFFFF;stop-opacity:0.77"/>
			<stop  offset="0.2033" style="stop-color:#FFFFFF;stop-opacity:0.65"/>
			<stop  offset="0.3448" style="stop-color:#FFFFFF;stop-opacity:0.65"/>
			<stop  offset="0.3462" style="stop-color:#FFFFFF;stop-opacity:0.65"/>
			<stop  offset="0.511" style="stop-color:#FFFFFF;stop-opacity:0"/>
			<stop  offset="0.5247" style="stop-color:#E1E1E1;stop-opacity:4.472275e-03"/>
			<stop  offset="0.5464" style="stop-color:#B8B8B8;stop-opacity:1.158136e-02"/>
			<stop  offset="0.5708" style="stop-color:#929292;stop-opacity:1.957367e-02"/>
			<stop  offset="0.5974" style="stop-color:#727272;stop-opacity:2.826838e-02"/>
			<stop  offset="0.6268" style="stop-color:#565656;stop-opacity:3.787606e-02"/>
			<stop  offset="0.6599" style="stop-color:#404040;stop-opacity:4.872554e-02"/>
			<stop  offset="0.6986" style="stop-color:#2F2F2F;stop-opacity:6.138782e-02"/>
			<stop  offset="0.7465" style="stop-color:#242424;stop-opacity:7.705475e-02"/>
			<stop  offset="0.8136" style="stop-color:#1D1D1D;stop-opacity:9.902187e-02"/>
			<stop  offset="1" style="stop-color:#1B1B1B;stop-opacity:0.16"/>
		</linearGradient>
		<path fill="url(#SVGID_42_)" d="M1129.1,326.4v-20.5h4.3c5.5,0,6.8,2,6.8,6.6v6.7c0,4.8-0.9,7.1-6.8,7.1H1129.1z M1133.3,323.5
			L1133.3,323.5c2.2,0,2.8-0.1,2.8-2v-11c0-1.4-0.9-1.7-2.6-1.7h-0.2V323.5z"/>
		<linearGradient id="SVGID_43_" gradientUnits="userSpaceOnUse" x1="1098.9885" y1="305.4805" x2="1098.9885" y2="326.8125">
			<stop  offset="0" style="stop-color:#FFFFFF;stop-opacity:0.77"/>
			<stop  offset="0.2033" style="stop-color:#FFFFFF;stop-opacity:0.65"/>
			<stop  offset="0.3448" style="stop-color:#FFFFFF;stop-opacity:0.65"/>
			<stop  offset="0.3462" style="stop-color:#FFFFFF;stop-opacity:0.65"/>
			<stop  offset="0.511" style="stop-color:#FFFFFF;stop-opacity:0"/>
			<stop  offset="0.5247" style="stop-color:#E1E1E1;stop-opacity:4.472275e-03"/>
			<stop  offset="0.5464" style="stop-color:#B8B8B8;stop-opacity:1.158136e-02"/>
			<stop  offset="0.5708" style="stop-color:#929292;stop-opacity:1.957367e-02"/>
			<stop  offset="0.5974" style="stop-color:#727272;stop-opacity:2.826838e-02"/>
			<stop  offset="0.6268" style="stop-color:#565656;stop-opacity:3.787606e-02"/>
			<stop  offset="0.6599" style="stop-color:#404040;stop-opacity:4.872554e-02"/>
			<stop  offset="0.6986" style="stop-color:#2F2F2F;stop-opacity:6.138782e-02"/>
			<stop  offset="0.7465" style="stop-color:#242424;stop-opacity:7.705475e-02"/>
			<stop  offset="0.8136" style="stop-color:#1D1D1D;stop-opacity:9.902187e-02"/>
			<stop  offset="1" style="stop-color:#1B1B1B;stop-opacity:0.16"/>
		</linearGradient>
		<path fill="url(#SVGID_43_)" d="M1142.1,319.7v-6.9c0-4.1,1.4-7.3,6-7.3c4.6,0,6,3.2,6,7.3v6.8c0,4-1.5,7.2-6,7.2
			C1143.6,326.8,1142.1,323.6,1142.1,319.7z M1150,320.6v-8.9c0-1.3-0.3-3-1.9-3c-1.6,0-1.8,1.7-1.8,3v8.9c0,1.3,0.3,3,1.8,3
			C1149.7,323.6,1150,321.9,1150,320.6z"/>
		<linearGradient id="SVGID_44_" gradientUnits="userSpaceOnUse" x1="1098.9885" y1="305.4805" x2="1098.9885" y2="326.8125">
			<stop  offset="0" style="stop-color:#FFFFFF;stop-opacity:0.77"/>
			<stop  offset="0.2033" style="stop-color:#FFFFFF;stop-opacity:0.65"/>
			<stop  offset="0.3448" style="stop-color:#FFFFFF;stop-opacity:0.65"/>
			<stop  offset="0.3462" style="stop-color:#FFFFFF;stop-opacity:0.65"/>
			<stop  offset="0.511" style="stop-color:#FFFFFF;stop-opacity:0"/>
			<stop  offset="0.5247" style="stop-color:#E1E1E1;stop-opacity:4.472275e-03"/>
			<stop  offset="0.5464" style="stop-color:#B8B8B8;stop-opacity:1.158136e-02"/>
			<stop  offset="0.5708" style="stop-color:#929292;stop-opacity:1.957367e-02"/>
			<stop  offset="0.5974" style="stop-color:#727272;stop-opacity:2.826838e-02"/>
			<stop  offset="0.6268" style="stop-color:#565656;stop-opacity:3.787606e-02"/>
			<stop  offset="0.6599" style="stop-color:#404040;stop-opacity:4.872554e-02"/>
			<stop  offset="0.6986" style="stop-color:#2F2F2F;stop-opacity:6.138782e-02"/>
			<stop  offset="0.7465" style="stop-color:#242424;stop-opacity:7.705475e-02"/>
			<stop  offset="0.8136" style="stop-color:#1D1D1D;stop-opacity:9.902187e-02"/>
			<stop  offset="1" style="stop-color:#1B1B1B;stop-opacity:0.16"/>
		</linearGradient>
		<path fill="url(#SVGID_44_)" d="M1155.7,320.5l4.2-0.8c0,1.8,0.1,3.9,1.6,3.9c1,0,1.2-0.7,1.2-1.6c0-1.7-1.2-3.2-2.4-4.3l-1.3-1.1
			c-1.6-1.4-3.3-2.9-3.3-5.8c0-3.4,2.3-5.4,5.8-5.4c2.9,0,5.2,2.4,5.2,5.3c0,0.1,0,0.2,0,0.5l-4.3,0.6c0-0.3,0-0.5,0-0.8
			c0-1-0.2-2.4-1.3-2.4c-1,0-1.4,0.9-1.4,1.8c0,1.5,0.8,2.4,1.8,3.2c0.5,0.4,1,0.9,1.5,1.3c2.1,1.9,3.7,3.8,3.7,7
			c0,2.9-2.4,4.9-5.3,4.9C1157.6,326.8,1155.9,323.7,1155.7,320.5z"/>
	</g>
	<g opacity="0.49">
		<g>
			<path fill="#FFFFFF" d="M1037.1,326.1c-6.1-0.4-5.6-6.4-5.6-11.1c0-5.2,1.7-10.6,8.1-8.3c2.6,0.9,2.9,4.4,2.9,6.7c0,0-1.9,0-2,0
				c-1.3,0-1.3,0.2-1.3-1.2c0-2.2-1.7-6.5-3.8-3c-1,1.6-0.3,5.7-0.3,7.3c0,2.1-0.4,5.2,0.7,7.1c1.3,2.1,3.4-0.6,3.4-2c0-1,0-2,0-3.1
				c0,0.2,1.9,0.1,2,0.1c2,0,1.5,0,1.1,2.9C1041.9,324.4,1039.9,325.9,1037.1,326.1c0,0,0,0.7,0,0.7c4.8-0.3,5.4-4.3,5.4-8.3
				c0,0,0-0.5,0-0.5c-1.1,0-2.2,0-3.3,0c0,0,0,0.3,0,0.4c0,2-0.5,7.2-3.5,4.6c-1.3-1.1-0.7-4.9-0.7-6.4c0-2.2-0.2-4.5,0.3-6.6
				c0.3-1.2,1.6-1.3,2.6-1.1c1.7,0.3,1.3,3.8,1.3,4.9c0,0,0,0.4,0,0.4c1.1,0,2.2,0,3.4,0c0,0,0-0.3,0-0.4c0-2.7,0.1-5.5-2.2-7.4
				c-1.7-1.5-4.8-1-6.5,0c-2,1.1-2.2,4-2.2,6.1c-0.1,5-1.5,13.9,5.6,14.3C1037.1,326.8,1037.2,326.1,1037.1,326.1z"/>
		</g>
		<g>
			<path fill="#FFFFFF" d="M1045.2,326c0-3.3,0-6.6,0-9.9c0-2.2,0-4.3,0-6.5c0-0.8,0-1.6,0-2.5c0-0.9-0.1-0.6,0.2-0.6
				c0.9,0,1.7,0,2.6,0c0.8,0,0.7-0.6,0.7,0.3c0,1.9,0,3.9,0,5.8c0,3.7,0,7.4,0,11.1c0,0,0,0.4,0,0.4c1.1,0,2.3,0,3.4,0
				c1,0,0.9,1.4,0.3,1.4c-2.4,0-4.8,0-7.1,0c0,0,0,0.7,0,0.7c2.5,0,5,0,7.5,0c0,0,0-0.3,0-0.4c0-0.7,0-1.4,0-2.1c0,0,0-0.4,0-0.4
				c-1,0-4.1,0.2-4.1,0c0-1.8,0-3.6,0-5.4c0-4,0-7.9,0-11.9c0,0,0-0.4,0-0.4c-1.1,0-2.3,0-3.4,0c0,0,0,0.3,0,0.4
				C1045.2,312.8,1045.2,319.4,1045.2,326C1045.2,326.4,1045.2,326.4,1045.2,326z"/>
		</g>
		<g>
			<path fill="#FFFFFF" d="M1062.2,325.7c-0.2-1.3-0.5-2.6-0.7-3.8c-0.2-1.1-2.2-0.6-3.2-0.6c-0.5,0-0.7,2.8-0.8,3.2
				c-0.3,1.7-1.2,1.1-2.9,1.1c-0.8,0-0.8,1.2-0.4-0.5c0.3-1.5,0.7-3,1-4.6c0.8-3.6,1.5-7.2,2.3-10.7c0.7-3.2,0.2-3.2,3.6-3.2
				c0.6,0,1.3,5.2,1.5,5.8c0.8,3.6,1.5,7.2,2.3,10.7c0.2,1,0.4,2.1,0.7,3.1C1065.4,325.3,1063.5,325.7,1062.2,325.7c0,0,0,0.7,0,0.7
				c1.1,0,2.2,0,3.4,0c0,0,0-0.7,0-0.7c-0.8-3.7-1.6-7.4-2.4-11c-0.5-2.2-0.9-4.4-1.4-6.6c-0.4-1.9,0-2.2-2-2.2
				c-1.8,0-1.5,0-1.9,1.7c-0.5,2.4-1,4.7-1.5,7.1c-0.8,3.7-1.6,7.4-2.4,11c0,0.1,0,0.7,0,0.7c0.5,0,3.3,0.2,3.4-0.2
				c0.3-1.4,0.5-2.8,0.8-4.2c0,0,3.2-0.2,3.3,0.2c0.3,1.4,0.5,2.8,0.8,4.2C1062.2,326.2,1062.3,325.9,1062.2,325.7z"/>
			<path fill="#FFFFFF" d="M1058.3,320.2c1,0,2,0,2.9,0c0,0,0-0.7,0-0.7c-0.2-1.4-0.4-2.9-0.6-4.3c-0.1-0.9-0.3-1.8-0.4-2.8
				c-0.1-0.5,0.1-0.9-0.5-0.9c-0.6,0-0.4,0.4-0.5,0.9c-0.1,0.9-0.3,1.8-0.4,2.8c-0.2,1.4-0.4,2.9-0.6,4.3
				C1058.3,319.7,1058.3,319.9,1058.3,320.2c0.2-1.4,0.4-2.9,0.6-4.3c0.1-0.9,0.3-1.8,0.4-2.8c0.1-0.5-0.1-0.9,0.5-0.9
				c0.6,0,0.4,0.4,0.5,0.9c0.1,0.9,0.3,1.8,0.4,2.8c0.2,1.4,0.4,2.9,0.6,4.3c0-0.2,0-0.5,0-0.7c-1,0-2,0-2.9,0
				C1058.3,319.4,1058.3,320.2,1058.3,320.2z"/>
		</g>
		<g>
			<path fill="#FFFFFF" d="M1072.7,326.1c-2.3-0.2-3.8-1.1-4.8-3.2c-1.1-2.3,0.2-1.8,2.2-2.2c1-0.2,0.8,3.3,2.6,3.7
				c1.2,0.3,1.6-1.3,1.6-2.1c0-2.4-1.4-4.1-3.2-5.6c-1.7-1.5-3.1-2.7-3.7-5c-0.8-2.9,1.9-4.9,4.3-5.4c2.8-0.6,4.9,1.3,5.8,3.7
				c0.5,1.4-3.4,0.4-3.4,1.3c0-2-1.3-5-3.2-2.3c-0.9,1.2,0.5,3.9,1,4.6c1.6,2,3.7,3.1,5.1,5.4C1079,322.8,1076.2,325.7,1072.7,326.1
				c0,0,0,0.7,0,0.7c3.9-0.4,5.1-3.1,4.8-6.4c-0.2-2.9-2.9-5.1-5-6.8c-1.5-1.2-2.4-2.8-1.1-4.6c1.2-1.7,2.7,1.2,2.6,2.1
				c0,0.1,0,0.7,0,0.7c1.2-0.2,2.4-0.3,3.6-0.5c0,0,0,0,0,0c0.3-7-10.3-7.8-10.3-0.6c0,2.8,1.3,4.5,3.4,6.3c1.7,1.5,3.9,3.2,3.5,5.7
				c-0.2,1.1-1.5,0.9-2.2,0.8c-1.2-0.3-1.2-2.9-1.2-3.6c0,0,0,0,0,0c-1.2,0.2-2.3,0.4-3.5,0.7c0,0,0,0.7,0,0.7
				c0.4,3.2,2,5.4,5.4,5.6C1072.6,326.8,1072.7,326.1,1072.7,326.1z"/>
		</g>
		<g>
			<path fill="#FFFFFF" d="M1080,326c0-3.8,0-7.6,0-11.4c0-2.3,0-4.7,0-7c0-0.4,0-0.9,0-1.3c0,0.6,2.8,0.3,3.2,0.3
				c0.3,0,0.2-0.4,0.2,0.6c0,1,0,2.1,0,3.1c0,2.7,0,5.5,0,8.2c0,2.2,0,4.4,0,6.6c0,1.4-1.9,0.6-3.4,0.6c0,0,0,0.7,0,0.7
				c1.1,0,2.3,0,3.4,0c0,0,0-0.3,0-0.4c0-6.6,0-13.2,0-19.8c0,0,0-0.4,0-0.4c-1.1,0-2.3,0-3.4,0c0,0,0,0.3,0,0.4
				C1080,312.8,1080,319.4,1080,326C1080,326.4,1080,326.4,1080,326z"/>
		</g>
		<g>
			<path fill="#FFFFFF" d="M1086.6,326c0-6.2,0-12.3,0-18.5c0-1.4-0.3-1,0.8-1c1.9,0,3.8,0,5.7,0c0.1,0,1.4,0.1,1.4-0.1
				c0,0.5,0.1,1.6-0.1,1.6c-1.4,0-2.8,0-4.3,0c0,0,0,0.3,0,0.4c0,2.1,0,4.2,0,6.3c0,0,0,0.4,0,0.4c1,0,3.1-0.5,3.1,0.4
				c0,1.8-1.4,1.1-3.1,1.1c0,0,0,0.3,0,0.4c0,2.3,0,4.5,0,6.8c0,0.9,0.2,2-0.2,2c-1.1,0-2.2,0-3.2,0c0,0,0,0.7,0,0.7
				c1.1,0,2.3,0,3.4,0c0,0,0-0.3,0-0.4c0-2,0-4.1,0-6.1c0-1,0-2,0-3c0,0.5,2.7,0.3,3.1,0.3c0,0,0-0.3,0-0.4c0-0.7,0-1.5,0-2.2
				c0,0,0-0.4,0-0.4c-0.4,0-3.1-0.2-3.1,0.2c0-1.3,0-2.5,0-3.8c0-1.3-0.4-2,0.6-2c1.3,0,2.6,0,3.8,0c0,0,0-0.3,0-0.4
				c0-0.7,0-1.4,0-2.1c0,0,0-0.4,0-0.4c-2.6,0-5.2,0-7.8,0c0,0,0,0.3,0,0.4C1086.6,312.8,1086.6,319.4,1086.6,326
				C1086.6,326.4,1086.6,326.4,1086.6,326z"/>
		</g>
		<g>
			<path fill="#FFFFFF" d="M1096.6,326c0-3.8,0-7.6,0-11.4c0-2.3,0-4.7,0-7c0-0.4,0-0.9,0-1.3c0,0.6,2.8,0.3,3.2,0.3
				c0.3,0,0.2-0.4,0.2,0.6c0,1,0,2.1,0,3.1c0,2.7,0,5.5,0,8.2c0,2.2,0,4.4,0,6.6c0,1.4-1.9,0.6-3.4,0.6c0,0,0,0.7,0,0.7
				c1.1,0,2.3,0,3.4,0c0,0,0-0.3,0-0.4c0-6.6,0-13.2,0-19.8c0,0,0-0.4,0-0.4c-1.1,0-2.3,0-3.4,0c0,0,0,0.3,0,0.4
				C1096.6,312.8,1096.6,319.4,1096.6,326C1096.6,326.4,1096.6,326.4,1096.6,326z"/>
		</g>
		<g>
			<path fill="#FFFFFF" d="M1108.5,326.1c-6.1-0.4-5.6-6.4-5.6-11.1c0-5.2,1.7-10.6,8.1-8.3c2.6,0.9,2.9,4.4,2.9,6.7c0,0-1.9,0-2,0
				c-1.3,0-1.3,0.2-1.3-1.2c0-2.2-1.7-6.5-3.8-3c-1,1.6-0.3,5.7-0.3,7.3c0,2.1-0.4,5.2,0.7,7.1c1.3,2.1,3.4-0.6,3.4-2c0-1,0-2,0-3.1
				c0,0.2,1.9,0.1,2,0.1c2,0,1.5,0,1.1,2.9C1113.3,324.4,1111.3,325.9,1108.5,326.1c0,0,0,0.7,0,0.7c4.8-0.3,5.4-4.3,5.4-8.3
				c0,0,0-0.5,0-0.5c-1.1,0-2.2,0-3.3,0c0,0,0,0.3,0,0.4c0,2-0.5,7.2-3.5,4.6c-1.3-1.1-0.7-4.9-0.7-6.4c0-2.2-0.2-4.5,0.3-6.6
				c0.3-1.2,1.6-1.3,2.6-1.1c1.7,0.3,1.3,3.8,1.3,4.9c0,0,0,0.4,0,0.4c1.1,0,2.2,0,3.4,0c0,0,0-0.3,0-0.4c0-2.7,0.1-5.5-2.2-7.4
				c-1.7-1.5-4.8-1-6.5,0c-2,1.1-2.2,4-2.2,6.1c-0.1,5-1.5,13.9,5.6,14.3C1108.5,326.8,1108.6,326.1,1108.5,326.1z"/>
		</g>
		<g>
			<path fill="#FFFFFF" d="M1123.9,325.7c-0.2-1.3-0.5-2.6-0.7-3.8c-0.2-1.1-2.2-0.6-3.2-0.6c-0.5,0-0.7,2.8-0.8,3.2
				c-0.3,1.7-1.2,1.1-2.9,1.1c-0.8,0-0.8,1.2-0.4-0.5c0.3-1.5,0.7-3,1-4.6c0.8-3.6,1.5-7.2,2.3-10.7c0.7-3.2,0.2-3.2,3.6-3.2
				c0.6,0,1.3,5.2,1.5,5.8c0.8,3.6,1.5,7.2,2.3,10.7c0.2,1,0.4,2.1,0.7,3.1C1127,325.3,1125.1,325.7,1123.9,325.7c0,0,0,0.7,0,0.7
				c1.1,0,2.2,0,3.4,0c0,0,0-0.7,0-0.7c-0.8-3.7-1.6-7.4-2.4-11c-0.5-2.2-0.9-4.4-1.4-6.6c-0.4-1.9,0-2.2-2-2.2
				c-1.8,0-1.5,0-1.9,1.7c-0.5,2.4-1,4.7-1.5,7.1c-0.8,3.7-1.6,7.4-2.4,11c0,0.1,0,0.7,0,0.7c0.5,0,3.3,0.2,3.4-0.2
				c0.3-1.4,0.5-2.8,0.8-4.2c0,0,3.2-0.2,3.3,0.2c0.3,1.4,0.5,2.8,0.8,4.2C1123.9,326.2,1124,325.9,1123.9,325.7z"/>
			<path fill="#FFFFFF" d="M1120,320.2c1,0,2,0,2.9,0c0,0,0-0.7,0-0.7c-0.2-1.4-0.4-2.9-0.6-4.3c-0.1-0.9-0.3-1.8-0.4-2.8
				c-0.1-0.5,0.1-0.9-0.5-0.9c-0.6,0-0.4,0.4-0.5,0.9c-0.1,0.9-0.3,1.8-0.4,2.8c-0.2,1.4-0.4,2.9-0.6,4.3
				C1120,319.7,1120,319.9,1120,320.2c0.2-1.4,0.4-2.9,0.6-4.3c0.1-0.9,0.3-1.8,0.4-2.8c0.1-0.5-0.1-0.9,0.5-0.9
				c0.6,0,0.4,0.4,0.5,0.9c0.1,0.9,0.3,1.8,0.4,2.8c0.2,1.4,0.4,2.9,0.6,4.3c0-0.2,0-0.5,0-0.7c-1,0-2,0-2.9,0
				C1120,319.4,1120,320.2,1120,320.2z"/>
		</g>
		<g>
			<path fill="#FFFFFF" d="M1129.5,326c0-4.1,0-8.1,0-12.2c0-2.2,0-4.4,0-6.6c0-1.4,2.1-0.6,3.8-0.6c2.7,0,5.3,0.4,6.3,3.2
				c0.8,2.4,0.3,6,0.3,8.6c0,3.2-0.2,6-3.5,7c-2.1,0.6-4.7,0.3-6.9,0.3c0,0,0,0.7,0,0.7c3.3,0,8.1,0.8,9.8-2.7c1-2,0.5-5.2,0.5-7.4
				c0-2.4,0.2-4.9-0.3-7.2c-0.9-4.1-6.9-3.2-10.1-3.2c0,0,0,0.3,0,0.4C1129.5,312.8,1129.5,319.4,1129.5,326
				C1129.5,326.4,1129.5,326.4,1129.5,326z"/>
			<path fill="#FFFFFF" d="M1132.9,324.2c2.1,0,3.5-0.1,3.5-2.5c0-1.6,0-3.2,0-4.8c0-2.1,0-4.3,0-6.4c0-2.2-1.6-2.4-3.5-2.4
				c0,0,0,0.3,0,0.4c0,5.1,0,10.3,0,15.4c0,0.4,0,0.4,0,0c0-2.6,0-5.1,0-7.7c0-1.8,0-3.7,0-5.5c0-0.6,0-1.1,0-1.7
				c0-0.7,0-0.1,0.5-0.1c2,0,3,0.7,3,2.7c0,1.8,0,3.6,0,5.4c0,1.5,0,3,0,4.4c0,2.2-1.8,2.1-3.5,2.1
				C1132.9,323.5,1132.9,324.2,1132.9,324.2z"/>
		</g>
		<g>
			<path fill="#FFFFFF" d="M1148.1,326.1c-5.5-0.3-5.6-5-5.6-9.5c0-4.6-0.3-10,5.6-10.4c5.6-0.3,5.6,5.5,5.6,9.5
				C1153.8,320.4,1154,325.7,1148.1,326.1c0,0,0,0.7,0,0.7c5.9-0.3,5.7-5.8,5.7-10.3c0-4.6,0.6-10.7-5.7-11.1
				c-5.9-0.3-5.6,6.2-5.6,10.3c0,4.6-0.6,10.6,5.6,11C1148.1,326.8,1148.1,326.1,1148.1,326.1z"/>
			<path fill="#FFFFFF" d="M1148.1,308c-3.1,0.2-2.2,6.1-2.2,8.2c0,2.1-0.9,7.9,2.2,8.2c3.1,0.2,2.2-6.5,2.2-8.2
				C1150.3,314.1,1151.2,308.2,1148.1,308c0,0,0,0.7,0,0.7c3.1,0.2,2.2,5.3,2.2,7.4c0,2.1,0.9,7.2-2.2,7.4c-3,0.2-2.2-5.6-2.2-7.4
				c0-2.1-0.8-7.2,2.2-7.4C1148.1,308.7,1148.1,308,1148.1,308z"/>
		</g>
		<g>
			<path fill="#FFFFFF" d="M1161.5,326.1c-2.3-0.2-3.8-1.1-4.8-3.2c-1.1-2.3,0.2-1.8,2.2-2.2c1-0.2,0.8,3.3,2.6,3.7
				c1.2,0.3,1.6-1.3,1.6-2.1c0-2.4-1.4-4.1-3.2-5.6c-1.7-1.5-3.1-2.7-3.7-5c-0.8-2.9,1.9-4.9,4.3-5.4c2.8-0.6,4.9,1.3,5.8,3.7
				c0.5,1.4-3.4,0.4-3.4,1.3c0-2-1.2-5-3.2-2.3c-0.9,1.2,0.5,3.9,1,4.6c1.6,2,3.8,3.1,5.1,5.4C1167.9,322.8,1165,325.7,1161.5,326.1
				c0,0,0,0.7,0,0.7c3.9-0.4,5.1-3.1,4.8-6.4c-0.2-2.9-2.9-5.1-5-6.8c-1.5-1.3-2.4-2.8-1.1-4.6c1.2-1.7,2.6,1.2,2.6,2.1
				c0,0.1,0,0.7,0,0.7c1.2-0.2,2.4-0.3,3.6-0.5c0,0,0,0,0,0c0.3-7-10.3-7.8-10.3-0.6c0,2.8,1.3,4.5,3.4,6.3c1.7,1.5,3.9,3.2,3.5,5.7
				c-0.2,1.1-1.5,0.9-2.2,0.8c-1.2-0.3-1.2-2.9-1.2-3.6c0,0,0,0,0,0c-1.2,0.2-2.3,0.4-3.5,0.7c0,0,0,0.7,0,0.7
				c0.4,3.2,2,5.4,5.4,5.6C1161.5,326.8,1161.5,326.1,1161.5,326.1z"/>
		</g>
	</g>
	
		<text transform="matrix(1 0 0 1 1030.2506 326.391)" fill="none" stroke="#717171" stroke-width="0.5878" stroke-miterlimit="1" font-family="'Oswald-Bold'" font-size="23.3195">CLASIFICADOS</text>
	<g opacity="0.58">
		<g>
			<path d="M1031.2,319.5c0-4.1-1-9.7,2.1-12.8c1.9-1.8,5.4-1.4,7.4-0.1c1.3,0.8,3.2,7.4,2,7.4c-1.2,0-3.9,0.7-3.9-0.9
				c0-0.6,0-1.4,0-2c-0.5-4.2-3.4-2.1-3.4,0.9c0,2.8,0,5.7,0,8.5c0,1.4,0.2,2.7,1.8,3c1.6,0.4,1.7-2.6,1.7-3.5
				c0-1.5-0.4-2.1,1.3-2.1c3.4,0,3.2,0.7,2.4,4.5c-0.7,3.3-3.5,4.3-6.6,4.1C1032.3,326.4,1031.3,322.5,1031.2,319.5
				C1031.2,319.5,1031.2,319.6,1031.2,319.5c0.2,5.1,3.5,9,8.9,6.6c2.9-1.3,2.8-5.5,2.8-8.2c0,0,0-0.1,0-0.1c-1.4,0-2.7,0-4.1,0
				c0,0,0,0.1,0,0.1c0,1.6,0,7.7-3,4.9c-1.1-1-0.5-5.3-0.5-6.7c0-2.1-0.4-4.7,0.5-6.7c0.5-1.3,2-0.6,2.6,0.1c0.9,1,0.4,3.2,0.4,4.5
				c0,0,0,0.1,0,0.1c1.4,0,2.7,0,4.1,0c0,0,0-0.1,0-0.1c0-1.3,0-2.6-0.2-3.9c-0.6-4.7-5.8-6-9.4-3.6
				C1030.1,308.7,1031.2,316.4,1031.2,319.5C1031.2,319.6,1031.2,319.6,1031.2,319.5z"/>
		</g>
		<g>
			<path d="M1044.8,326.4c0-2.1-0.2-20.4,0.2-20.4c0.8,0,4-0.4,4,0.4c0,1.9,0,3.8,0,5.6c0,3.9,0,7.7,0,11.6c0,0,0,0.1,0,0.1
				c1.3,0,2.6,0,3.9,0c0.2,0,0.6,2.7-0.2,2.7C1050.1,326.3,1047.5,326.3,1044.8,326.4C1044.8,326.3,1044.8,326.5,1044.8,326.4
				c2.7,0.1,5.5,0.1,8.2,0.1c0,0,0-0.1,0-0.1c0-0.9,0-1.9,0-2.8c0,0,0-0.1,0-0.1c-0.8,0-4.1,0.4-4.1-0.4c0-1.9,0-3.8,0-5.6
				c0-3.9,0-7.7,0-11.6c0,0,0-0.1,0-0.1c-1.4,0-2.8,0-4.1,0c0,0,0,0.1,0,0.1C1044.8,312.7,1044.8,319.6,1044.8,326.4
				C1044.8,326.5,1044.8,326.5,1044.8,326.4z"/>
		</g>
		<g>
			<path d="M1053.5,326.5c1.3-5.9,2.6-11.8,3.8-17.7c0.7-3.2,0.6-2.8,4.1-2.8c0.6,0,1.5,6.1,1.7,6.8c0.8,3.7,1.6,7.3,2.4,11
				c0.2,0.9,0.4,1.8,0.6,2.7c-0.1-0.3-3.6-0.1-4.1-0.1c-0.1,0-0.7-3.5-0.7-3.8c-0.2-0.9-2.7-0.8-2.8-0.4c-0.3,1.4-0.5,2.8-0.8,4.2
				c0,0.1-3.7,0-4.1,0C1053.5,326.3,1053.5,326.5,1053.5,326.5c0.6,0,4.1,0.3,4.1-0.2c0.3-1.5,0-4.2,1.7-4.2c2.6,0,2,1.4,2.5,3.8
				c0.2,1.2,3.1,0.6,4.2,0.6c0,0,0-0.1,0-0.1c-0.8-3.8-1.6-7.6-2.5-11.4c-0.5-2.3-1-4.6-1.5-6.8c-0.4-1.8,0-2.2-1.9-2.2
				c-1.9,0-2.1-0.4-2.5,1.3c-0.5,2.3-1,4.7-1.5,7c-0.9,4.1-1.8,8.1-2.6,12.2C1053.5,326.4,1053.5,326.4,1053.5,326.5z"/>
			<path d="M1058.7,319.5c0.7,0,1.4,0,2.1,0c0,0,0-0.1,0-0.1c-0.3-2.5-0.7-5.1-1-7.6c0.2,1.1-0.4,2.7-0.5,3.8
				c-0.2,1.3-0.4,2.5-0.5,3.8C1058.7,319.4,1058.7,319.5,1058.7,319.5c0.2-1.5,0.4-2.9,0.6-4.4c0.1-0.9,0.3-1.8,0.4-2.7
				c0.1-0.4,0-0.7,0.1-0.1c0.2,1.8,0.5,3.6,0.7,5.4c0.1,0.6,0.2,1.2,0.2,1.8c0-0.2-1.8-0.1-2.1-0.1
				C1058.7,319.4,1058.7,319.5,1058.7,319.5z"/>
		</g>
		<g>
			<path d="M1066.9,320.6c1.3-0.3,2.7-0.5,4-0.8c0,0,0.7,6.5,2.9,3.1c0.6-0.8-0.5-3-0.7-3.3c-0.8-1.7-3.2-3.1-4.5-4.4
				c-2.4-2.4-2.2-6.3,0.2-8.5c2.1-2,5.6-1.2,7.5,0.4c0.3,0.3,2.4,4,1.3,4.1c-0.9,0.1-1.8,0.3-2.7,0.4c-1.7,0.2-1.1-0.3-1.4-1.4
				c-0.5-2.1-2.6-1.9-2.6,0.3c0,1.4,0.8,2.3,1.8,3.2c2.9,2.7,5.6,4.7,5.1,9.2c-0.3,3.1-3.9,4-6.4,3.7c-3.1-0.3-4.3-3.6-4.5-6.2
				C1066.9,320.5,1066.9,320.5,1066.9,320.6c0.5,4.3,3.3,7.1,7.8,5.9c2-0.5,3.2-2.6,3.2-4.6c0-2.5-1.1-4.4-2.8-6.2
				c-1.4-1.5-3.1-2.4-4-4.3c-1-2.2,2.7-4.5,2.5,0.4c0,0,0,0.1,0,0.1c1.4-0.2,2.9-0.4,4.3-0.6c0,0,0,0,0,0c0.2-7.2-10.7-7.9-11-0.5
				c-0.1,1.8,0.7,3.1,1.7,4.5c1.3,1.7,3.2,2.7,4.5,4.4c1,1.3,1.3,3.3-0.5,3.8c-1.7,0.5-1.6-3.6-1.6-3.9c0,0,0,0,0,0
				c-1.4,0.3-2.8,0.5-4.2,0.8C1066.9,320.5,1066.9,320.6,1066.9,320.6z"/>
		</g>
		<g>
			<path d="M1079.7,326.4c0-4.2,0-8.4,0-12.7c0-2.3,0-4.6,0-6.9c0-1.7,2.5-0.9,4-0.9c0.4,0,0.2,11.5,0.2,12.6c0,2.3,0,4.6,0,6.9
				C1083.8,327.2,1081.2,326.3,1079.7,326.4C1079.7,326.3,1079.7,326.5,1079.7,326.4c1.4,0.1,2.8,0.1,4.1,0.1c0,0,0-0.1,0-0.1
				c0-6.8,0-13.7,0-20.5c0,0,0-0.1,0-0.1c-1.4,0-2.8,0-4.1,0c0,0,0,0.1,0,0.1C1079.7,312.7,1079.7,319.6,1079.7,326.4
				C1079.7,326.5,1079.7,326.5,1079.7,326.4z"/>
		</g>
		<g>
			<path d="M1086.3,326.4c0-6.5,0-13,0-19.5c0-1.2,0.1-0.9,1.3-0.9c2,0,3.9,0,5.9,0c1.9,0,1.3,0.8,1.3,2.6c0,0.3-3.9,0.2-4.4,0.2
				c0,0,0,0.1,0,0.1c0,1.9,0,3.7,0,5.6c0,0,0,0.1,0,0.1c1.8,0,3.1-0.7,3.1,1.4s-1.3,1.4-3.1,1.4c0,0,0,0.1,0,0.1c0,2.4,0,4.8,0,7.2
				c0,0.9,0.4,1.8-0.6,1.8C1088.6,326.3,1087.4,326.3,1086.3,326.4C1086.3,326.3,1086.3,326.5,1086.3,326.4c1.4,0.1,2.8,0.1,4.1,0.1
				c0,0,0-0.1,0-0.1c0-2.2,0-4.4,0-6.5c0-3,0.1-2.6,3.1-2.6c0,0,0-0.1,0-0.1c0-1,0-1.9,0-2.9c0,0,0-0.1,0-0.1
				c-0.3,0-3.1,0.1-3.1-0.1c0-1.3,0-2.5,0-3.8c0-1.4-0.3-1.6,1.1-1.6c1.1,0,2.2,0,3.3,0c0,0,0-0.1,0-0.1c0-0.9,0-1.9,0-2.8
				c0,0,0-0.1,0-0.1c-2.8,0-5.7,0-8.5,0c0,0,0,0.1,0,0.1C1086.3,312.7,1086.3,319.6,1086.3,326.4
				C1086.3,326.5,1086.3,326.5,1086.3,326.4z"/>
		</g>
		<g>
			<path d="M1096.3,326.4c0-4.2,0-8.4,0-12.7c0-2.3,0-4.6,0-6.9c0-1.7,2.5-0.9,4-0.9c0.4,0,0.2,11.5,0.2,12.6c0,2.3,0,4.6,0,6.9
				C1100.4,327.2,1097.8,326.3,1096.3,326.4C1096.3,326.3,1096.3,326.5,1096.3,326.4c1.4,0.1,2.8,0.1,4.1,0.1c0,0,0-0.1,0-0.1
				c0-6.8,0-13.7,0-20.5c0,0,0-0.1,0-0.1c-1.4,0-2.8,0-4.1,0c0,0,0,0.1,0,0.1C1096.3,312.7,1096.3,319.6,1096.3,326.4
				C1096.3,326.5,1096.3,326.5,1096.3,326.4z"/>
		</g>
		<g>
			<path d="M1102.6,319.5c0-4.1-1-9.7,2.1-12.8c1.9-1.8,5.4-1.4,7.4-0.1c1.3,0.8,3.2,7.4,2,7.4c-1.2,0-3.9,0.7-3.9-0.9
				c0-0.6,0-1.4,0-2c-0.5-4.2-3.4-2.1-3.4,0.9c0,2.8,0,5.7,0,8.5c0,1.4,0.2,2.7,1.8,3c1.6,0.4,1.7-2.6,1.7-3.5
				c0-1.5-0.4-2.1,1.3-2.1c3.4,0,3.2,0.7,2.4,4.5c-0.7,3.3-3.5,4.3-6.6,4.1C1103.6,326.4,1102.7,322.5,1102.6,319.5
				C1102.6,319.5,1102.6,319.6,1102.6,319.5c0.2,5.1,3.5,9,8.9,6.6c2.9-1.3,2.8-5.5,2.8-8.2c0,0,0-0.1,0-0.1c-1.4,0-2.7,0-4.1,0
				c0,0,0,0.1,0,0.1c0,1.6,0,7.7-3,4.9c-1.1-1-0.5-5.3-0.5-6.7c0-2.1-0.4-4.7,0.5-6.7c0.5-1.3,2-0.6,2.6,0.1c0.9,1,0.4,3.2,0.4,4.5
				c0,0,0,0.1,0,0.1c1.4,0,2.7,0,4.1,0c0,0,0-0.1,0-0.1c0-1.3,0-2.6-0.2-3.9c-0.6-4.7-5.8-6-9.4-3.6
				C1101.5,308.7,1102.6,316.4,1102.6,319.5C1102.6,319.6,1102.6,319.6,1102.6,319.5z"/>
		</g>
		<g>
			<path d="M1115.2,326.5c1.3-5.9,2.6-11.8,3.8-17.7c0.7-3.2,0.6-2.8,4.1-2.8c0.6,0,1.5,6.1,1.7,6.8c0.8,3.7,1.6,7.3,2.4,11
				c0.2,0.9,0.4,1.8,0.6,2.7c-0.1-0.3-3.6-0.1-4.1-0.1c-0.1,0-0.7-3.5-0.7-3.8c-0.2-0.9-2.7-0.8-2.8-0.4c-0.3,1.4-0.5,2.8-0.8,4.2
				c0,0.1-3.7,0-4.1,0C1115.2,326.3,1115.2,326.5,1115.2,326.5c0.6,0,4.1,0.3,4.1-0.2c0.3-1.5,0-4.2,1.7-4.2c2.6,0,2,1.4,2.5,3.8
				c0.2,1.2,3.1,0.6,4.2,0.6c0,0,0-0.1,0-0.1c-0.8-3.8-1.6-7.6-2.5-11.4c-0.5-2.3-1-4.6-1.5-6.8c-0.4-1.8,0-2.2-1.9-2.2
				c-1.9,0-2.1-0.4-2.5,1.3c-0.5,2.3-1,4.7-1.5,7c-0.9,4.1-1.8,8.1-2.6,12.2C1115.2,326.4,1115.2,326.4,1115.2,326.5z"/>
			<path d="M1120.4,319.5c0.7,0,1.4,0,2.1,0c0,0,0-0.1,0-0.1c-0.3-2.5-0.7-5.1-1-7.6c0.2,1.1-0.4,2.7-0.5,3.8
				c-0.2,1.3-0.4,2.5-0.5,3.8C1120.4,319.4,1120.4,319.5,1120.4,319.5c0.2-1.5,0.4-2.9,0.6-4.4c0.1-0.9,0.3-1.8,0.4-2.7
				c0.1-0.4,0-0.7,0.1-0.1c0.2,1.8,0.5,3.6,0.7,5.4c0.1,0.6,0.2,1.2,0.2,1.8c0-0.2-1.8-0.1-2.1-0.1
				C1120.4,319.4,1120.4,319.5,1120.4,319.5z"/>
		</g>
		<g>
			<path d="M1129.1,326.4c0-4.2,0-8.4,0-12.7c0-2.3,0-4.6,0-6.9c0-1.8,2.6-0.9,4.1-0.9c2.8,0,5.5,0.4,6.6,3.3
				c0.9,2.4,0.4,5.9,0.4,8.5c0,3.1,0.2,6.5-2.9,8C1135,326.9,1131.6,326.3,1129.1,326.4C1129.1,326.3,1129.1,326.5,1129.1,326.4
				c3.5,0.1,8.7,0.9,10.5-2.9c0.9-2,0.5-5.1,0.5-7.2c0-2.4,0.2-4.8-0.4-7.2c-1.1-4.3-7.4-3.3-10.7-3.3c0,0,0,0.1,0,0.1
				C1129.1,312.7,1129.1,319.6,1129.1,326.4C1129.1,326.5,1129.1,326.5,1129.1,326.4z"/>
			<path d="M1133.3,323.5c1.7,0,2.8-0.1,2.8-2c0-1.6,0-3.1,0-4.7c0-2.1,0-4.1,0-6.2c0-1.7-1.3-1.9-2.8-1.9c0,0,0,0.1,0,0.1
				C1133.3,313.7,1133.3,318.6,1133.3,323.5C1133.3,323.6,1133.3,323.6,1133.3,323.5c0-2.5,0-5,0-7.4c0-1.8,0-3.5,0-5.3
				c0-1.4-0.5-2,1-2c2.9,0.1,1.8,6,1.8,8c0,1.4,0,2.9,0,4.3c0,2.1-0.9,2.2-2.8,2.2C1133.3,323.4,1133.3,323.5,1133.3,323.5z"/>
		</g>
		<g>
			<path d="M1142.1,319.7c0-3.5-0.5-7.5,0.6-10.8c0.9-2.8,3.9-3.4,6.5-3.2c2.8,0.2,4.2,2.6,4.7,5.1c0.8,3.7,0.7,10.2-0.9,13.5
				c-1.3,2.6-4.7,2.7-7.1,2.2C1142.9,325.8,1142.2,322.2,1142.1,319.7C1142.1,319.6,1142.1,319.7,1142.1,319.7
				c0.1,3.5,1.2,6.3,4.8,7.1c4.3,0.9,6.7-2.4,7.1-6.1c0.3-2.6,0.1-5.3,0-7.9c0-2.7-0.6-5.1-2.9-6.6c-3.4-2.2-7.6,0.1-8.7,3.5
				C1141.5,312.6,1142.1,316.6,1142.1,319.7C1142.1,319.7,1142.1,319.7,1142.1,319.7z"/>
			<path d="M1150,320.6c0-2.9,0-5.9,0-8.8c0-3.7-3.7-3.9-3.7-0.1c0,2.7,0,5.5,0,8.2c0,0.4,0,1,0,1.4c0.2,1.6,0.8,2.5,2.5,2.2
				C1149.9,323.3,1149.9,321.5,1150,320.6C1150,320.6,1150,320.6,1150,320.6c-0.1,1.7-1,4-3,2.5c-1-0.7-0.7-2.8-0.7-4
				c0-2.4,0-4.9,0-7.3c0-2,1.8-4.5,3.4-2c0.6,0.9,0.3,2.8,0.3,3.9C1150,316,1150,318.3,1150,320.6C1150,320.7,1150,320.7,1150,320.6
				z"/>
		</g>
		<g>
			<path d="M1155.7,320.6c1.3-0.3,2.7-0.5,4-0.8c0,0,0.7,6.5,2.9,3.1c0.6-0.8-0.5-3-0.7-3.3c-0.8-1.7-3.2-3.1-4.5-4.4
				c-2.4-2.4-2.2-6.3,0.2-8.5c2.1-2,5.6-1.2,7.5,0.4c0.3,0.3,2.4,4,1.3,4.1c-0.9,0.1-1.8,0.3-2.7,0.4c-1.7,0.2-1.1-0.3-1.4-1.4
				c-0.5-2.1-2.6-1.9-2.6,0.3c0,1.4,0.8,2.3,1.8,3.2c2.9,2.7,5.6,4.7,5.1,9.2c-0.3,3.1-3.9,4-6.4,3.7c-3.1-0.3-4.3-3.6-4.5-6.2
				C1155.7,320.5,1155.7,320.5,1155.7,320.6c0.5,4.3,3.3,7.1,7.8,5.9c2-0.5,3.2-2.6,3.2-4.6c0-2.5-1.1-4.4-2.8-6.2
				c-1.4-1.5-3.1-2.4-4-4.3c-1-2.2,2.7-4.5,2.5,0.4c0,0,0,0.1,0,0.1c1.4-0.2,2.9-0.4,4.3-0.6c0,0,0,0,0,0c0.2-7.2-10.7-7.9-11-0.5
				c-0.1,1.8,0.7,3.1,1.7,4.5c1.3,1.7,3.2,2.7,4.5,4.4c1,1.3,1.3,3.3-0.5,3.8c-1.7,0.5-1.6-3.6-1.6-3.9c0,0,0,0,0,0
				c-1.4,0.3-2.8,0.5-4.2,0.8C1155.7,320.5,1155.7,320.6,1155.7,320.6z"/>
		</g>
	</g>
</g>
<g>
	
		<image overflow="visible" opacity="0.75" width="179" height="67" xlink:href="C2A7D7D8DB81E593.png"  transform="matrix(1 0 0 1 1018 330)">
	</image>
	<g>
		<text transform="matrix(0.6577 0 0 1 1033.8274 371.9837)" font-family="'Oswald-Bold'" font-size="28.6398">alyinmobiliaria.com</text>
	</g>
</g>
<g>
	<g>
		
			<image overflow="visible" opacity="0.75" width="266" height="55" xlink:href="22423257B9C62AFB.png"  transform="matrix(1 0 0 1 31 -94)">
		</image>
		<g>
			<text transform="matrix(1.509 0 0 1 46.1406 -61.0322)" font-family="'Overlock-Bold'" font-size="25.9662">ARRENDAMOS</text>
		</g>
	</g>
	<g>
		<g>
			
				<image overflow="visible" opacity="0.75" width="213" height="213" xlink:href="22423257B9C62AE0.png"  transform="matrix(1 0 0 1 60.8456 -353.3529)">
			</image>
			<g>
				<g>
					<polygon fill-rule="evenodd" clip-rule="evenodd" fill="#00CC99" points="165.9,-338.1 125.4,-286.2 166.9,-179 206.5,-286.2 
											"/>
					<polygon fill-rule="evenodd" clip-rule="evenodd" fill="#00CC99" points="79.6,-265.2 85.4,-215.7 163.2,-182 128,-260 					
						"/>
					<polygon fill-rule="evenodd" clip-rule="evenodd" fill="#00CC99" points="250.1,-268.3 201.9,-261.2 170.7,-180.9 
						246.2,-218.7 					"/>
					<polygon fill-rule="evenodd" clip-rule="evenodd" fill="#00CC99" points="76.2,-180.6 104,-156.4 163.6,-178.3 105.4,-203 
											"/>
					<polygon fill-rule="evenodd" clip-rule="evenodd" fill="#00CC99" points="257.9,-184.4 231.2,-158.9 170.7,-177.9 
						227.7,-205.3 					"/>
					<rect x="165.6" y="-175.5" fill="#00CC99" width="3" height="19.4"/>
					<path fill-rule="evenodd" clip-rule="evenodd" fill="#00CC99" d="M205.7-198.2"/>
					<path fill-rule="evenodd" clip-rule="evenodd" fill="#00CC99" d="M182.7-212.5"/>
				</g>
			</g>
		</g>
		<g>
			
				<image overflow="visible" opacity="0.75" width="276" height="313" xlink:href="22423257B9C62AE1.png"  transform="matrix(1 0 0 1 33 -385)">
			</image>
			<g>
				<path fill="#00CC99" d="M163.8-377L41.7-306.3V-165l122.2,70.7L286-165v-141.3L163.8-377z M273.1-172.7l-109.2,63.2L54.6-172.7
					V-299l109.2-63.2L273.1-299V-172.7z"/>
			</g>
		</g>
	</g>
</g>
<g>
	<g>
		
			<image overflow="visible" opacity="0.75" width="222" height="55" xlink:href="22423257B9C62AE2.png"  transform="matrix(1 0 0 1 786 -95)">
		</image>
		<g>
			<text transform="matrix(1.509 0 0 1 802.4432 -61.6173)" font-family="'Overlock-Bold'" font-size="25.9662">VENDEMOS</text>
		</g>
	</g>
	<g>
		<g>
			
				<image overflow="visible" opacity="0.75" width="213" height="213" xlink:href="22423257B9C62AE3.png"  transform="matrix(1 0 0 1 794.187 -353.0083)">
			</image>
			<g>
				<g>
					<polygon fill-rule="evenodd" clip-rule="evenodd" fill="#00CCFF" points="899.3,-337.5 858.8,-285.6 900.2,-178.4 
						939.8,-285.6 					"/>
					<polygon fill-rule="evenodd" clip-rule="evenodd" fill="#00CCFF" points="812.9,-264.6 818.7,-215.1 896.6,-181.4 
						861.4,-259.4 					"/>
					<polygon fill-rule="evenodd" clip-rule="evenodd" fill="#00CCFF" points="983.4,-267.7 935.2,-260.6 904.1,-180.3 
						979.5,-218.1 					"/>
					<polygon fill-rule="evenodd" clip-rule="evenodd" fill="#00CCFF" points="809.5,-180.1 837.3,-155.8 896.9,-177.7 
						838.8,-202.4 					"/>
					<polygon fill-rule="evenodd" clip-rule="evenodd" fill="#00CCFF" points="991.3,-183.8 964.6,-158.3 904,-177.3 961,-204.7 
											"/>
					<rect x="898.9" y="-174.9" fill="#00CCFF" width="3" height="19.4"/>
					<path fill-rule="evenodd" clip-rule="evenodd" fill="#00CCFF" d="M939-197.6"/>
					<path fill-rule="evenodd" clip-rule="evenodd" fill="#00CCFF" d="M916-211.9"/>
				</g>
			</g>
		</g>
		<g>
			
				<image overflow="visible" opacity="0.75" width="276" height="314" xlink:href="22423257B9C62AE4.png"  transform="matrix(1 0 0 1 766 -385)">
			</image>
			<g>
				<path fill="#00CCFF" d="M897.2-376.4L775-305.7v141.3l122.2,70.7l122.2-70.7v-141.3L897.2-376.4z M1006.4-172.1l-109.2,63.2
					L788-172.1v-126.3l109.2-63.2l109.2,63.2V-172.1z"/>
			</g>
		</g>
	</g>
</g>
<g>
	
		<image overflow="visible" opacity="0.75" width="95" height="57" xlink:href="22423257B9C62ADD.png"  transform="matrix(1 0 0 1 428.8939 416.0728)">
	</image>
	<g>
		<path fill="#00CC99" d="M499.9,447.4v9.3c0,0.1,0,0.2-0.1,0.3c-0.1,0.1-0.2,0.1-0.3,0.2c-0.1,0-0.4,0.1-0.6,0.1
			c-0.3,0-0.6,0.1-0.9,0.1c-0.4,0-0.7,0-1-0.1c-0.2,0-0.5-0.1-0.6-0.1c-0.2,0-0.3-0.1-0.3-0.2c-0.1-0.1-0.1-0.2-0.1-0.3v-9.3
			l-8.4-14.3c-0.2-0.3-0.3-0.5-0.3-0.7c0-0.2,0-0.3,0.1-0.4c0.1-0.1,0.3-0.2,0.6-0.2c0.3,0,0.7,0,1.2,0c0.5,0,0.8,0,1.1,0
			c0.3,0,0.5,0.1,0.7,0.1c0.2,0,0.3,0.1,0.4,0.2c0.1,0.1,0.2,0.2,0.2,0.3l4.1,7.3c0.4,0.7,0.8,1.4,1.1,2.2c0.4,0.8,0.8,1.5,1.2,2.3
			h0c0.3-0.7,0.7-1.5,1.1-2.2c0.4-0.7,0.7-1.5,1.1-2.2l4.1-7.3c0-0.1,0.1-0.2,0.2-0.3c0.1-0.1,0.2-0.2,0.3-0.2
			c0.1,0,0.3-0.1,0.6-0.1c0.3,0,0.6,0,1,0c0.5,0,1,0,1.3,0.1c0.3,0,0.5,0.1,0.7,0.2c0.1,0.1,0.2,0.2,0.1,0.4c0,0.2-0.1,0.4-0.3,0.7
			L499.9,447.4z M489.9,455.8c0,0.3,0,0.5,0,0.7c0,0.2-0.1,0.3-0.1,0.5c-0.1,0.1-0.2,0.2-0.2,0.3c-0.1,0.1-0.2,0.1-0.4,0.1h-13.1
			c-0.4,0-0.7-0.1-1-0.3c-0.3-0.2-0.5-0.6-0.5-1.1v-23.4c0-0.1,0-0.2,0.1-0.3c0.1-0.1,0.2-0.1,0.3-0.2c0.1,0,0.4-0.1,0.6-0.1
			c0.3,0,0.6-0.1,0.9-0.1c0.4,0,0.7,0,0.9,0.1c0.3,0,0.5,0.1,0.6,0.1c0.2,0,0.3,0.1,0.3,0.2c0.1,0.1,0.1,0.2,0.1,0.3v21.9h10.6
			c0.1,0,0.3,0,0.4,0.1c0.1,0.1,0.2,0.1,0.2,0.3c0.1,0.1,0.1,0.3,0.1,0.4C489.9,455.3,489.9,455.5,489.9,455.8z M457,435.3
			L457,435.3l-5.1,12.6h10.3L457,435.3z M469.7,456.1c0.1,0.3,0.2,0.5,0.2,0.7c0,0.2-0.1,0.3-0.2,0.4c-0.1,0.1-0.3,0.2-0.6,0.2
			c-0.3,0-0.7,0-1.1,0c-0.5,0-0.8,0-1.1,0c-0.3,0-0.5-0.1-0.6-0.1c-0.1,0-0.2-0.1-0.3-0.2c-0.1-0.1-0.1-0.2-0.2-0.3l-2.5-6.2h-12.3
			l-2.4,6.1c0,0.1-0.1,0.2-0.2,0.3c-0.1,0.1-0.2,0.2-0.3,0.2c-0.1,0.1-0.4,0.1-0.6,0.1c-0.3,0-0.6,0-1,0c-0.4,0-0.8,0-1.1-0.1
			c-0.3,0-0.5-0.1-0.6-0.2c-0.1-0.1-0.2-0.2-0.2-0.4c0-0.2,0.1-0.4,0.2-0.7l9.9-23.5c0.1-0.1,0.1-0.3,0.2-0.4
			c0.1-0.1,0.2-0.2,0.4-0.2c0.2-0.1,0.4-0.1,0.7-0.1c0.3,0,0.7,0,1.1,0c0.5,0,0.9,0,1.2,0c0.3,0,0.6,0.1,0.8,0.1
			c0.2,0.1,0.4,0.1,0.5,0.2c0.1,0.1,0.2,0.2,0.2,0.4L469.7,456.1z"/>
	</g>
</g>
<g>
	
		<image overflow="visible" opacity="0.75" width="95" height="56" xlink:href="22423257B9C62ADE.png"  transform="matrix(1 0 0 1 727.5427 436.8675)">
	</image>
	<g>
		<path fill="#00CCFF" d="M798.4,467.8v9.3c0,0.1,0,0.2-0.1,0.3c-0.1,0.1-0.2,0.1-0.3,0.2c-0.1,0-0.4,0.1-0.6,0.1
			c-0.3,0-0.6,0.1-0.9,0.1c-0.4,0-0.7,0-1-0.1c-0.2,0-0.5-0.1-0.6-0.1c-0.2,0-0.3-0.1-0.3-0.2c-0.1-0.1-0.1-0.2-0.1-0.3v-9.3
			l-8.4-14.3c-0.2-0.3-0.3-0.5-0.3-0.7c0-0.2,0-0.3,0.1-0.4c0.1-0.1,0.3-0.2,0.6-0.2c0.3,0,0.7,0,1.2,0c0.5,0,0.8,0,1.1,0
			c0.3,0,0.5,0.1,0.7,0.1c0.2,0,0.3,0.1,0.4,0.2c0.1,0.1,0.2,0.2,0.2,0.3l4.1,7.3c0.4,0.7,0.8,1.4,1.1,2.2c0.4,0.8,0.8,1.5,1.2,2.3
			h0c0.3-0.7,0.7-1.5,1.1-2.2c0.4-0.7,0.7-1.5,1.1-2.2l4.1-7.3c0-0.1,0.1-0.2,0.2-0.3c0.1-0.1,0.2-0.2,0.3-0.2
			c0.1,0,0.3-0.1,0.6-0.1c0.3,0,0.6,0,1,0c0.5,0,1,0,1.3,0.1c0.3,0,0.5,0.1,0.7,0.2c0.1,0.1,0.2,0.2,0.1,0.4c0,0.2-0.1,0.4-0.3,0.7
			L798.4,467.8z M788.5,476.1c0,0.3,0,0.5,0,0.7c0,0.2-0.1,0.3-0.1,0.5c-0.1,0.1-0.2,0.2-0.2,0.3c-0.1,0.1-0.2,0.1-0.4,0.1h-13.1
			c-0.4,0-0.7-0.1-1-0.3c-0.3-0.2-0.5-0.6-0.5-1.1v-23.4c0-0.1,0-0.2,0.1-0.3c0.1-0.1,0.2-0.1,0.3-0.2c0.1,0,0.4-0.1,0.6-0.1
			c0.3,0,0.6-0.1,0.9-0.1c0.4,0,0.7,0,0.9,0.1c0.3,0,0.5,0.1,0.6,0.1c0.2,0,0.3,0.1,0.3,0.2c0.1,0.1,0.1,0.2,0.1,0.3v21.9h10.6
			c0.1,0,0.3,0,0.4,0.1c0.1,0.1,0.2,0.1,0.2,0.3c0.1,0.1,0.1,0.3,0.1,0.4C788.4,475.7,788.5,475.9,788.5,476.1z M755.5,455.7
			L755.5,455.7l-5.1,12.6h10.3L755.5,455.7z M768.2,476.4c0.1,0.3,0.2,0.5,0.2,0.7c0,0.2-0.1,0.3-0.2,0.4c-0.1,0.1-0.3,0.2-0.6,0.2
			c-0.3,0-0.7,0-1.1,0c-0.5,0-0.8,0-1.1,0c-0.3,0-0.5-0.1-0.6-0.1c-0.1,0-0.2-0.1-0.3-0.2c-0.1-0.1-0.1-0.2-0.2-0.3l-2.5-6.2h-12.3
			L747,477c0,0.1-0.1,0.2-0.2,0.3c-0.1,0.1-0.2,0.2-0.3,0.2c-0.1,0.1-0.4,0.1-0.6,0.1c-0.3,0-0.6,0-1,0c-0.4,0-0.8,0-1.1-0.1
			c-0.3,0-0.5-0.1-0.6-0.2c-0.1-0.1-0.2-0.2-0.2-0.4c0-0.2,0.1-0.4,0.2-0.7l9.9-23.5c0.1-0.1,0.1-0.3,0.2-0.4
			c0.1-0.1,0.2-0.2,0.4-0.2c0.2-0.1,0.4-0.1,0.7-0.1c0.3,0,0.7,0,1.1,0c0.5,0,0.9,0,1.2,0c0.3,0,0.6,0.1,0.8,0.1
			c0.2,0.1,0.4,0.1,0.5,0.2c0.1,0.1,0.2,0.2,0.2,0.4L768.2,476.4z"/>
	</g>
</g>
<g>
	<g>
		
			<image overflow="visible" opacity="0.75" width="214" height="55" xlink:href="22423257B9C62ADF.png"  transform="matrix(1 0 0 1 543 -95)">
		</image>
		<g>
			<text transform="matrix(1.509 0 0 1 558.066 -61.6171)" font-family="'Overlock-Bold'" font-size="25.9662">CORRETAJE</text>
		</g>
	</g>
	<g>
		<g>
			
				<image overflow="visible" opacity="0.75" width="213" height="213" xlink:href="22423257B9C62B15.png"  transform="matrix(1 0 0 1 549.4797 -353.2268)">
			</image>
			<g>
				<g>
					<polygon fill-rule="evenodd" clip-rule="evenodd" fill="#EF505D" points="654.9,-337.5 614.4,-285.6 655.8,-178.4 
						695.4,-285.6 					"/>
					<polygon fill-rule="evenodd" clip-rule="evenodd" fill="#EF505D" points="568.5,-264.6 574.4,-215.1 652.2,-181.4 617,-259.4 
											"/>
					<polygon fill-rule="evenodd" clip-rule="evenodd" fill="#EF505D" points="739.1,-267.7 690.9,-260.6 659.7,-180.3 
						735.1,-218.1 					"/>
					<polygon fill-rule="evenodd" clip-rule="evenodd" fill="#EF505D" points="565.1,-180.1 592.9,-155.8 652.5,-177.7 
						594.4,-202.4 					"/>
					<polygon fill-rule="evenodd" clip-rule="evenodd" fill="#EF505D" points="746.9,-183.8 720.2,-158.3 659.7,-177.3 
						716.6,-204.7 					"/>
					<rect x="654.5" y="-174.9" fill="#EF505D" width="3" height="19.4"/>
					<path fill-rule="evenodd" clip-rule="evenodd" fill="#EF505D" d="M694.7-197.6"/>
					<path fill-rule="evenodd" clip-rule="evenodd" fill="#EF505D" d="M671.6-211.9"/>
				</g>
			</g>
		</g>
		<g>
			
				<image overflow="visible" opacity="0.75" width="275" height="314" xlink:href="22423257B9C62B0A.png"  transform="matrix(1 0 0 1 522 -385)">
			</image>
			<g>
				<path fill="#EF505D" d="M652.8-376.4l-122.2,70.7v141.3l122.2,70.7L775-164.4v-141.3L652.8-376.4z M762-172.1l-109.2,63.2
					l-109.2-63.2v-126.3l109.2-63.2L762-298.4V-172.1z"/>
			</g>
		</g>
	</g>
</g>
</svg>
